<?xml version="1.0" encoding="UTF-8"?>
<svg xmlns="http://www.w3.org/2000/svg" width="1840" height="500" xmlns:xlink="http://www.w3.org/1999/xlink" viewBox="0 0 1840 500">
  <defs>
    <linearGradient id="linear-gradient" x1="912.5" y1="670.9" x2="912.5" y2="-4.18" gradientUnits="userSpaceOnUse">
      <stop offset="0" stop-color="#a3ea2a"/>
      <stop offset=".18" stop-color="#74a831"/>
      <stop offset=".34" stop-color="#4d7037"/>
      <stop offset=".48" stop-color="#30483c"/>
      <stop offset=".59" stop-color="#1f303e"/>
      <stop offset=".66" stop-color="#192740"/>
    </linearGradient>
    <filter id="outer-glow-8" filterUnits="userSpaceOnUse">
      <feOffset dx="0" dy="0"/>
      <feGaussianBlur result="blur" stdDeviation="5.64"/>
      <feFlood flood-color="#a3ea2a" flood-opacity=".75"/>
      <feComposite in2="blur" operator="in"/>
      <feComposite in="SourceGraphic"/>
    </filter>
    <filter id="outer-glow-9" filterUnits="userSpaceOnUse">
      <feOffset dx="0" dy="0"/>
      <feGaussianBlur result="blur-2" stdDeviation="5.64"/>
      <feFlood flood-color="#a3ea2a" flood-opacity=".75"/>
      <feComposite in2="blur-2" operator="in"/>
      <feComposite in="SourceGraphic"/>
    </filter>
    <filter id="outer-glow-10" filterUnits="userSpaceOnUse">
      <feOffset dx="0" dy="0"/>
      <feGaussianBlur result="blur-3" stdDeviation="5.64"/>
      <feFlood flood-color="#a3ea2a" flood-opacity=".75"/>
      <feComposite in2="blur-3" operator="in"/>
      <feComposite in="SourceGraphic"/>
    </filter>
    <linearGradient id="linear-gradient-2" x1="1535.03" y1="283.57" x2="1597.67" y2="283.57" gradientUnits="userSpaceOnUse">
      <stop offset=".07" stop-color="#090909"/>
      <stop offset=".47" stop-color="gray"/>
      <stop offset=".91" stop-color="#000"/>
    </linearGradient>
    <linearGradient id="linear-gradient-3" x1="1613.34" y1="318.94" x2="1574.82" y2="355.55" gradientTransform="translate(2976.01 1182.95) rotate(-161.18)" gradientUnits="userSpaceOnUse">
      <stop offset=".12" stop-color="#f2f2f2"/>
      <stop offset=".86" stop-color="#ccc"/>
    </linearGradient>
    <linearGradient id="linear-gradient-4" x1="1576.86" y1="310.87" x2="1599.95" y2="310.87" gradientUnits="userSpaceOnUse">
      <stop offset=".47" stop-color="#000"/>
      <stop offset=".61" stop-color="gray"/>
      <stop offset=".81" stop-color="#000"/>
    </linearGradient>
    <linearGradient id="linear-gradient-5" x1="1573.71" y1="217.06" x2="1607.95" y2="217.06" gradientUnits="userSpaceOnUse">
      <stop offset=".58" stop-color="#090909"/>
      <stop offset=".86" stop-color="gray"/>
      <stop offset="1" stop-color="#000"/>
    </linearGradient>
    <linearGradient id="linear-gradient-6" x1="391.83" y1="1780.13" x2="417.09" y2="1780.13" gradientTransform="translate(207.86 -1108.63) rotate(-27.71)" xlink:href="#linear-gradient-2"/>
    <linearGradient id="linear-gradient-7" x1="1591.09" y1="-704.86" x2="1573.2" y2="-687.85" gradientTransform="translate(3122.87 162.59) rotate(-161.18)" xlink:href="#linear-gradient-3"/>
    <linearGradient id="linear-gradient-8" x1="1574.4" y1="-714" x2="1585.12" y2="-714" gradientTransform="translate(-301.88 547.08) rotate(15.77)" xlink:href="#linear-gradient-4"/>
    <linearGradient id="linear-gradient-9" x1="409.79" y1="1748.82" x2="425.7" y2="1748.82" gradientTransform="translate(207.86 -1108.63) rotate(-27.71)" xlink:href="#linear-gradient-5"/>
    <filter id="outer-glow-11" filterUnits="userSpaceOnUse">
      <feOffset dx="0" dy="0"/>
      <feGaussianBlur result="blur-4" stdDeviation="5.64"/>
      <feFlood flood-color="#a3ea2a" flood-opacity=".75"/>
      <feComposite in2="blur-4" operator="in"/>
      <feComposite in="SourceGraphic"/>
    </filter>
    <linearGradient id="linear-gradient-10" x1="1214.91" y1="286.98" x2="1308.22" y2="286.98" gradientUnits="userSpaceOnUse">
      <stop offset=".58" stop-color="#090909"/>
      <stop offset=".86" stop-color="gray"/>
      <stop offset=".91" stop-color="#000"/>
    </linearGradient>
    <linearGradient id="linear-gradient-11" x1="1296.64" y1="328.85" x2="1185.15" y2="400.61" gradientTransform="translate(-29.22 637.2) rotate(-28.84)" xlink:href="#linear-gradient-3"/>
    <linearGradient id="linear-gradient-12" x1="1294.49" y1="374.14" x2="1250.07" y2="398.02" gradientUnits="userSpaceOnUse">
      <stop offset=".12" stop-color="#f2f2f2"/>
      <stop offset=".86" stop-color="#b3b3b3"/>
    </linearGradient>
    <linearGradient id="linear-gradient-13" x1="1226.4" y1="184.97" x2="1274.83" y2="184.97" xlink:href="#linear-gradient-5"/>
    <linearGradient id="linear-gradient-14" x1="1228.87" y1="307.4" x2="1230.18" y2="339.98" gradientUnits="userSpaceOnUse">
      <stop offset=".07" stop-color="gray"/>
      <stop offset=".58" stop-color="#090909"/>
      <stop offset=".91" stop-color="#000"/>
    </linearGradient>
    <filter id="outer-glow-12" filterUnits="userSpaceOnUse">
      <feOffset dx="0" dy="0"/>
      <feGaussianBlur result="blur-5" stdDeviation="5.64"/>
      <feFlood flood-color="#a3ea2a" flood-opacity=".75"/>
      <feComposite in2="blur-5" operator="in"/>
      <feComposite in="SourceGraphic"/>
    </filter>
    <linearGradient id="linear-gradient-15" x1="1106.64" y1="421.67" x2="1083.06" y2="424.74" gradientUnits="userSpaceOnUse">
      <stop offset=".12" stop-color="#fff"/>
      <stop offset=".53" stop-color="#97de2a"/>
      <stop offset=".94" stop-color="#192740"/>
    </linearGradient>
    <linearGradient id="linear-gradient-16" x1="947.54" y1="-2414.15" x2="915.33" y2="-2409.97" gradientTransform="translate(-99.55 -1900.46) rotate(-6) scale(1 -1)" xlink:href="#linear-gradient-15"/>
    <linearGradient id="linear-gradient-17" x1="1077.32" y1="386.54" x2="1070.69" y2="437.03" gradientUnits="userSpaceOnUse">
      <stop offset=".12" stop-color="#fff"/>
      <stop offset=".61" stop-color="#97de2a"/>
      <stop offset=".94" stop-color="#192740"/>
    </linearGradient>
    <linearGradient id="linear-gradient-18" x1="-1009.97" y1="2787.35" x2="-1020.12" y2="2788.67" gradientTransform="translate(-219.5 -1949.39) rotate(-57.06)" gradientUnits="userSpaceOnUse">
      <stop offset=".12" stop-color="#fff"/>
      <stop offset=".53" stop-color="#97de2a"/>
      <stop offset=".94" stop-color="#192740"/>
    </linearGradient>
    <linearGradient id="linear-gradient-19" x1="-1399.1" y1="-4560.4" x2="-1410.26" y2="-4557.6" gradientTransform="translate(-1868.62 -2899.17) rotate(-63.06) scale(1 -1)" xlink:href="#linear-gradient-18"/>
    <linearGradient id="linear-gradient-20" x1="-1021.02" y1="2774.1" x2="-1023.54" y2="2793.24" gradientTransform="translate(-219.5 -1949.39) rotate(-57.06)" xlink:href="#linear-gradient-17"/>
    <linearGradient id="linear-gradient-21" x1="-1019.84" y1="2813.19" x2="-1025.65" y2="2813.95" xlink:href="#linear-gradient-18"/>
    <linearGradient id="linear-gradient-22" x1="-1410.04" y1="-4586.46" x2="-1415.85" y2="-4585.71" gradientTransform="translate(-1868.62 -2899.17) rotate(-63.06) scale(1 -1)" xlink:href="#linear-gradient-18"/>
    <linearGradient id="linear-gradient-23" x1="-1027.07" y1="2804.52" x2="-1028.72" y2="2817.08" gradientTransform="translate(-219.5 -1949.39) rotate(-57.06)" xlink:href="#linear-gradient-17"/>
    <linearGradient id="linear-gradient-24" x1="-4978.94" y1="1412.7" x2="-4986.2" y2="1413.64" gradientTransform="translate(-3739.18 638.99) rotate(160.6) scale(1 -1)" gradientUnits="userSpaceOnUse">
      <stop offset=".12" stop-color="#fff"/>
      <stop offset=".53" stop-color="#97de2a"/>
      <stop offset=".94" stop-color="#192740"/>
    </linearGradient>
    <linearGradient id="linear-gradient-25" x1="-5201.37" y1="-2779.53" x2="-5207.72" y2="-2778.7" gradientTransform="translate(-4276.4 -1186.67) rotate(166.6)" gradientUnits="userSpaceOnUse">
      <stop offset=".12" stop-color="#fff"/>
      <stop offset=".53" stop-color="#97de2a"/>
      <stop offset=".94" stop-color="#192740"/>
    </linearGradient>
    <linearGradient id="linear-gradient-26" x1="-4986.83" y1="1403.23" x2="-4988.64" y2="1417" gradientTransform="translate(-3739.18 638.99) rotate(160.6) scale(1 -1)" xlink:href="#linear-gradient-17"/>
  </defs>
  <g id="Layer_2" data-name="Layer 2">
    <rect x="-15.5" y="-16" width="1856" height="520" style="fill: url(#linear-gradient); stroke-width: 0px;"/>
  </g>
  <g id="Layer_1" data-name="Layer 1">
    <g>
      <path d="m1400.49,428.2c1.65,0,1.65-2.56,0-2.56s-1.65,2.56,0,2.56h0Z" style="fill: #97de2a; stroke-width: 0px;"/>
      <path d="m1671.34,317.46c1.65,0,1.65-2.56,0-2.56s-1.65,2.56,0,2.56h0Z" style="fill: #97de2a; stroke-width: 0px;"/>
      <path d="m1342.79,295.52c1.65,0,1.65-2.56,0-2.56s-1.65,2.56,0,2.56h0Z" style="fill: #97de2a; stroke-width: 0px;"/>
      <path d="m1462.93,272.56c1.65,0,1.65-2.56,0-2.56s-1.65,2.56,0,2.56h0Z" style="fill: #97de2a; stroke-width: 0px;"/>
      <path d="m1647.73,386.82c1.65,0,1.65-2.56,0-2.56s-1.65,2.56,0,2.56h0Z" style="fill: #97de2a; stroke-width: 0px;"/>
      <path d="m1349.86,243.65c.82,0,.82-1.28,0-1.28s-.82,1.28,0,1.28h0Z" style="fill: #97de2a; stroke-width: 0px;"/>
      <path d="m1422.3,277.22c.82,0,.82-1.28,0-1.28s-.82,1.28,0,1.28h0Z" style="fill: #97de2a; stroke-width: 0px;"/>
      <path d="m1356.93,369.08c.82,0,.82-1.28,0-1.28s-.82,1.28,0,1.28h0Z" style="fill: #97de2a; stroke-width: 0px;"/>
      <path d="m1533.6,372.62c.82,0,.82-1.28,0-1.28s-.82,1.28,0,1.28h0Z" style="fill: #97de2a; stroke-width: 0px;"/>
      <path d="m1501.8,266.62c.82,0,.82-1.28,0-1.28s-.82,1.28,0,1.28h0Z" style="fill: #97de2a; stroke-width: 0px;"/>
      <path d="m1171.42,243.65c.82,0,.82-1.28,0-1.28s-.82,1.28,0,1.28h0Z" style="fill: #97de2a; stroke-width: 0px;"/>
      <path d="m1171.42,347.88c.82,0,.82-1.28,0-1.28s-.82,1.28,0,1.28h0Z" style="fill: #97de2a; stroke-width: 0px;"/>
      <path d="m1118.42,347.88c.82,0,.82-1.28,0-1.28s-.82,1.28,0,1.28h0Z" style="fill: #97de2a; stroke-width: 0px;"/>
      <path d="m1118.42,275.45c.82,0,.82-1.28,0-1.28s-.82,1.28,0,1.28h0Z" style="fill: #97de2a; stroke-width: 0px;"/>
      <path d="m1390.86,238.76s4.34-432.21,1.19-448.78" style="fill: none; filter: url(#outer-glow-8); stroke: #1a1a1a; stroke-miterlimit: 10; stroke-width: 1.37px;"/>
      <path d="m1241.48,169.55s-133.43-72.75-134.14-389.45" style="fill: none; filter: url(#outer-glow-9); stroke: #1a1a1a; stroke-miterlimit: 10; stroke-width: 1.37px;"/>
      <path d="m1597.54,204.38s122.75-104.05,143.91-337.52" style="fill: none; filter: url(#outer-glow-10); stroke: #1a1a1a; stroke-miterlimit: 10; stroke-width: 1.09px;"/>
      <path d="m1594.21,320.29s-8.45,27.68-39.12,14.16c-50.43-22.23,30.08-104.22,30.86-105.49" style="fill: none; stroke: url(#linear-gradient-2); stroke-linecap: round; stroke-linejoin: round; stroke-width: 6.93px;"/>
      <rect x="1558.56" y="302.07" width="54.89" height="85.71" transform="translate(3198.51 159.88) rotate(161.18)" style="fill: url(#linear-gradient-3); stroke-width: 0px;"/>
      <path d="m1595.36,320.49s4.39-11.69-4.18-17.01c-3.11-1.93-8.77-5-10.86,2.91" style="fill: none; stroke: url(#linear-gradient-4); stroke-linecap: round; stroke-linejoin: round; stroke-width: 6.93px;"/>
      <circle cx="1590.83" cy="217.06" r="13.66" style="fill: none; stroke: url(#linear-gradient-5); stroke-linecap: round; stroke-linejoin: round; stroke-width: 6.93px;"/>
      <line x1="1569.86" y1="352.62" x2="1606.24" y2="342.08" style="fill: #f2f2f2; stroke: #333; stroke-miterlimit: 10; stroke-width: .96px;"/>
      <line x1="1570.81" y1="355.49" x2="1607.2" y2="344.96" style="fill: #f2f2f2; stroke: #333; stroke-miterlimit: 10; stroke-width: .96px;"/>
      <line x1="1572.73" y1="362.19" x2="1596.67" y2="355.49" style="fill: #f2f2f2; stroke: #333; stroke-miterlimit: 10; stroke-width: .96px;"/>
      <line x1="1573.69" y1="365.06" x2="1597.62" y2="358.36" style="fill: #f2f2f2; stroke: #333; stroke-miterlimit: 10; stroke-width: .96px;"/>
      <path d="m1413.73,293.93s3.3,6.42-12.24,7.49c-25.54,1.75-10.14-49.36-10.09-50.05" style="fill: none; stroke: url(#linear-gradient-6); stroke-linecap: round; stroke-linejoin: round; stroke-width: 3.22px;"/>
      <rect x="1392.64" y="289.38" width="25.49" height="39.81" transform="translate(2825.22 543.41) rotate(176.95)" style="fill: url(#linear-gradient-7); stroke-width: 0px;"/>
      <path d="m1414.35,294.42s3.44-4.67.28-8.13c-1.15-1.25-3.29-3.34-5.22-.07" style="fill: none; stroke: url(#linear-gradient-8); stroke-linecap: round; stroke-linejoin: round; stroke-width: 3.22px;"/>
      <circle cx="1390.84" cy="245.42" r="6.34" style="fill: none; stroke: url(#linear-gradient-9); stroke-linecap: round; stroke-linejoin: round; stroke-width: 3.22px;"/>
      <g style="filter: url(#outer-glow-11);">
        <path d="m1219.12,256.01c.82,0,.82-1.28,0-1.28s-.82,1.28,0,1.28h0Z" style="fill: #97de2a; stroke-width: 0px;"/>
        <path d="m1218.6,336.82s5.26,43.17,54.18,31.19c80.44-19.7-17.24-162.09-18.06-164.17" style="fill: none; stroke: url(#linear-gradient-10); stroke-linecap: round; stroke-linejoin: round; stroke-width: 7.38px;"/>
        <rect x="1183.05" y="311.02" width="82.47" height="128.8" rx="6.37" ry="6.37" transform="translate(333 -544.05) rotate(28.84)" style="fill: url(#linear-gradient-11); stroke-width: 0px;"/>
        <path d="m1228.67,441.48l-4.25-64.14c-.08-1.17.53-2.28,1.56-2.84l56.48-30.69c2.64-1.43,5.52,1.46,4.07,4.09l-52.23,94.83c-1.45,2.63-5.43,1.74-5.63-1.25Z" style="fill: url(#linear-gradient-12); stroke-width: 0px;"/>
        <circle cx="1250.61" cy="184.97" r="20.52" style="fill: none; stroke: url(#linear-gradient-13); stroke-linecap: round; stroke-linejoin: round; stroke-width: 7.38px;"/>
        <path d="m1158.76,409.87c-.46.85.44,1.79,1.3,1.36,12.13-6.05,59.59-30,61.1-35.52,1.64-5.99,0-64.21-.31-70.62-.02-.34-1.74-1.88-2.04-2.04l-2.04,1.02c-.48-.26-58.01,105.8-58.01,105.8Z" style="fill: #b3b3b3; stroke-width: 0px;"/>
        <path d="m1216.85,336.82s-3.44-18.45,10.63-24.07c5.1-2.04,14.29-5.1,15.31,7.14" style="fill: none; stroke: url(#linear-gradient-14); stroke-linecap: round; stroke-linejoin: round; stroke-width: 7.38px;"/>
      </g>
      <g>
        <path d="m1107.6,403.31c-.16.21-.11.56.12.68s.57-.1.52-.36-.52-.27-.56-.01" style="fill: #97de2a; stroke-width: 0px;"/>
        <path d="m1107.05,402.99c-.06.08-.09.17-.12.26s-.04.2-.05.29c-.01.1,0,.2.02.3.01.07.04.13.07.2.02.04.03.09.06.13.04.06.09.12.13.18.01.02.03.03.04.04.05.04.1.08.15.12,0,0,.02.01.03.02.08.05.18.09.27.11.07.01.15.03.22.03s.16-.02.23-.03c.02,0,.04,0,.06-.02.07-.02.14-.05.21-.09.02,0,.04-.02.05-.03.06-.04.12-.09.18-.14s.09-.11.14-.17c.01-.02.02-.03.03-.05.03-.06.05-.12.07-.17,0,0,0-.02,0-.03,0,0,0-.02,0-.03.01-.06.02-.13.03-.2,0-.01,0-.02,0-.03,0-.06-.01-.13-.03-.19,0-.02,0-.04-.01-.05-.02-.05-.05-.14-.09-.19-.03-.05-.07-.1-.11-.14,0,0-.01-.01-.02-.02s-.01-.01-.02-.02c-.04-.04-.1-.08-.14-.11-.01-.01-.03-.02-.05-.03-.07-.04-.16-.08-.25-.09-.07-.01-.15-.03-.22-.03-.05,0-.09,0-.14.01s-.09,0-.14.02c-.07.02-.14.05-.2.08-.04.02-.07.05-.11.08-.04.03-.07.05-.1.09-.09.11-.18.23-.2.38-.03.09-.03.17-.01.26,0,.09.03.16.08.24.04.07.1.13.16.18.06.06.13.09.22.11l.17.02c.12,0,.22-.03.32-.09l.13-.1c.08-.08.13-.17.16-.28,0-.02,0-.03.01-.05l-.06.15s.01-.03.02-.04l-.1.13s.02-.03.04-.04l-.13.1s.04-.02.06-.03l-.15.06s.06-.02.09-.02l-.17.02s.06,0,.1,0l-.17-.02s.06.01.09.03l-.15-.06s.05.02.07.04l-.13-.1s.03.03.04.04l-.1-.13s.02.03.03.05l-.06-.15s.01.04.02.06l-.02-.17s0,.04,0,.06l.02-.17s-.01.05-.02.08l.06-.15s-.03.05-.04.07l.1-.13s-.04.05-.07.07l.13-.1s-.06.04-.09.05l.15-.06s-.07.02-.1.03l.17-.02s-.06,0-.1,0l.17.02s-.05-.01-.07-.02l.15.06s-.05-.03-.08-.05l.13.1s-.05-.04-.07-.07l.1.13s-.04-.06-.05-.09l.06.15s-.03-.08-.03-.13l.02.17s0-.09,0-.13l-.02.17s.02-.09.03-.13l-.06.15s.03-.06.05-.09c.05-.07.07-.15.08-.24.02-.09.02-.17-.01-.26-.02-.08-.06-.16-.11-.22-.05-.07-.1-.12-.18-.16-.15-.08-.33-.12-.49-.06l-.15.06c-.1.06-.17.13-.23.23h0Z" style="fill: #97de2a; stroke-width: 0px;"/>
      </g>
      <g style="filter: url(#outer-glow-12);">
        <g>
          <path d="m1073.16,417.16c2.08,1.92,2.39,5.46.68,7.71-.52.69-1.12,1.84-.34,2.21.21.1.46.08.67.18.64.3.39,1.27,0,1.87-.51.81-1.09,1.61-1.34,2.53s-.05,2.05.73,2.6c.83.59,1.97.34,2.95.06,8.52-2.43,17.24-6.05,22.56-13.15-8.57,1.26-17.18-1.29-25.47-3.82" style="fill: url(#linear-gradient-15); stroke-width: 0px;"/>
          <path d="m1072.94,417.39c1.38,1.36,1.98,3.36,1.57,5.27-.18.83-.57,1.48-1.02,2.18-.3.46-.72,1.07-.67,1.66.03.34.15.59.43.78.43.3.93.48.92,1.18-.01.45-.69,1.17-.91,1.55-.64,1.09-1.14,2.43-.55,3.66.56,1.17,1.79,1.39,2.96,1.19,1.78-.3,3.57-.99,5.27-1.57,3.38-1.15,6.69-2.55,9.77-4.37,3.33-1.98,6.31-4.48,8.66-7.57.19-.25-.13-.5-.36-.47-8.63,1.2-17.12-1.33-25.3-3.82-.39-.12-.56.5-.17.62,8.3,2.53,16.87,5.04,25.64,3.82l-.36-.47c-4.18,5.49-10.36,8.87-16.74,11.19-1.55.56-3.11,1.07-4.69,1.53-.9.27-2.1.76-3.04.51-1.5-.41-1.41-2.11-.9-3.23.44-.97,1.81-2.26,1.4-3.45-.12-.35-.31-.41-.57-.62-.39-.31-.19.24-.53-.5-.21-.47-.19-.48.04-.9.19-.33.43-.61.63-.93,1.49-2.43.98-5.7-1.02-7.68-.29-.29-.75.16-.45.45h0Z" style="fill: #97de2a; stroke-width: 0px;"/>
        </g>
        <g>
          <path d="m1062.2,409.46c1.87-2.13,1.81-5.68-.13-7.74-.59-.63-1.31-1.71-.57-2.16.2-.12.45-.13.65-.25.61-.37.25-1.31-.19-1.86-.6-.75-1.26-1.48-1.59-2.38s-.27-2.03.45-2.66c.77-.67,1.92-.55,2.92-.37,8.73,1.53,17.78,4.22,23.81,10.72-8.65-.36-16.95,3.08-24.93,6.46" style="fill: url(#linear-gradient-16); stroke-width: 0px;"/>
          <path d="m1062.43,409.69c1.58-1.93,1.91-4.64.78-6.88-.29-.59-.71-1.04-1.11-1.55-.42-.54-.5-1.05-.02-1.57.13-.14.36-.15.51-.33.56-.72-.07-1.7-.52-2.29-.63-.81-1.37-1.61-1.52-2.66-.21-1.46.81-2.21,2.17-2.18,1.73.05,3.58.6,5.26.98,3.35.76,6.67,1.74,9.81,3.15,3.58,1.6,6.86,3.77,9.55,6.63l.23-.55c-8.83-.3-17.11,3.12-25.09,6.5-.38.16-.05.71.32.55,7.88-3.33,16.05-6.71,24.77-6.41.29,0,.41-.35.23-.55-4.95-5.25-11.76-8.05-18.66-9.71-1.75-.42-3.51-.8-5.29-1.09-1.17-.19-2.6-.35-3.45.68-.74.9-.61,2.21-.12,3.2.37.75.95,1.32,1.42,2.01.44.64.51,1.03-.09,1.58-.18.16-.38.14-.54.37-.78,1.13,1.09,2.57,1.54,3.41,1.07,1.99.82,4.52-.61,6.26-.26.32.19.77.45.45h0Z" style="fill: #97de2a; stroke-width: 0px;"/>
        </g>
        <g>
          <path d="m1113.16,402.34c-5.62-5.15-11.93-10.02-19.42-11.38-5.04-.92-10.3.12-14.98,2.21s-8.84,5.19-12.73,8.52c-3.24,2.78-6.57,5.85-10.76,6.66-2.51.49-5.1.1-7.65.28-6.78.46-7.25-4.51-11.85.48-2.17,2.35.79,6.19,1.71,6.83,11.09,7.68,12.87,1.32,12.8,1.71-.6,3.07-13.18,14.16-5.78,18.34,2.42,1.37,5.6.43,7.97-1.02,1.76-1.07,10.86-11.13,14.17-12.49,3.3-1.36,6.92.62,10.21,2,4.47,1.87,9.38,2.68,14.22,2.35,2.91-.2,5.82-.82,8.44-2.09,5.34-2.59,9.05-7.61,12.06-12.72,1.69-2.87,3.26-6.46,1.69-9.4" style="fill: url(#linear-gradient-17); stroke-width: 0px;"/>
          <path d="m1113.39,402.11c-6.72-6.14-14.78-12.17-24.36-11.79-10.02.4-17.9,6.68-25.22,12.85-1.94,1.63-3.98,3.23-6.35,4.19-2.56,1.04-5.21.91-7.91.9-2.13,0-4.14.21-6.2-.47-1.11-.37-2.17-1.01-3.34-1.19-2.29-.36-5.19,2.06-5.32,4.34-.2,3.35,2.76,5.52,5.31,6.96,2.36,1.33,5.6,2.89,8.36,1.86.65-.24,1.24-.63,1.68-1.17.14-.16.3-.35.38-.55.13-.29.21-.19-.05-.12l-.41-.31c-.01.5-.84,1.61-1.24,2.18-.8,1.13-1.66,2.23-2.48,3.34-1.66,2.26-3.48,4.72-4.17,7.49-.57,2.3.13,4.45,2.26,5.63,2.95,1.63,6.94.27,9.31-1.83s4.33-4.22,6.52-6.3c1.21-1.16,2.44-2.31,3.73-3.38.97-.81,2.01-1.7,3.23-2.11,2.82-.94,5.83.5,8.37,1.6,2.38,1.03,4.8,1.89,7.35,2.39,4.88.96,10.23.89,14.94-.82s8.46-5.35,11.37-9.44c2.64-3.71,6.67-9.19,4.38-13.91-.18-.37-.73-.05-.55.32,1.25,2.58.27,5.4-.97,7.78-1.02,1.96-2.24,3.85-3.53,5.65-2.74,3.81-6.2,7.24-10.67,8.91-4.8,1.79-10.28,1.85-15.25.8-2.57-.54-4.96-1.46-7.36-2.5-1.94-.84-3.99-1.71-6.14-1.72-2.76-.01-4.77,1.81-6.72,3.53-2.35,2.08-4.57,4.32-6.82,6.52-2.08,2.04-3.9,3.84-6.91,4.43-3.51.69-6.82-1.57-5.95-5.28.69-2.95,2.73-5.56,4.5-7.94.82-1.1,1.67-2.17,2.43-3.31.37-.55.98-1.33,1-2.03,0-.21-.21-.36-.41-.31-.21.05-.27.33-.37.49-.26.39-.55.72-.94.98-1.78,1.21-4.24.53-6.06-.2-3.06-1.24-6.88-3.22-7.45-6.84-.29-1.86,1.29-3.5,2.88-4.26,1.07-.51,2.07-.21,3.11.21,1.22.49,2.41.97,3.72,1.16,1.94.28,3.95.03,5.9.06,2.21.03,4.38-.06,6.46-.87,1.83-.71,3.48-1.78,5.02-2.97,3.5-2.69,6.66-5.75,10.34-8.21,3.87-2.59,8.12-4.65,12.72-5.51,10.78-2.01,19.84,4.29,27.41,11.2.3.28.76-.17.45-.45h0Z" style="fill: #97de2a; stroke-width: 0px;"/>
        </g>
        <g>
          <path d="m1095.23,401.23c-1-.28-2.13.17-2.76,1s-.76,1.97-.47,2.97c.51,1.73,2.4,2.96,4.18,2.66s3.19-2.12,2.95-3.91-2.13-3.2-3.9-2.85" style="stroke-width: 0px;"/>
          <path d="m1095.4,400.61c-1.88-.47-3.73.85-4.1,2.71s.5,3.62,2.08,4.58,3.39.84,4.78-.26c1.31-1.04,2.02-2.9,1.42-4.51-.68-1.82-2.6-2.98-4.52-2.64-.34.06-.53.48-.45.79.1.36.45.51.79.45,1.12-.2,2.27.5,2.8,1.46.58,1.04.28,2.31-.51,3.15-.84.9-2.06,1.17-3.2.71s-1.95-1.51-2-2.71c-.03-.71.18-1.44.7-1.95.49-.47,1.2-.7,1.86-.53.8.2,1.14-1.03.34-1.23h0Z" style="stroke-width: 0px;"/>
        </g>
        <g>
          <path d="m1065.35,405.55c-.08.2-.02.45.15.58.28-.06.6-.17.7-.44s-.23-.63-.45-.45" style="fill: #97de2a; stroke-width: 0px;"/>
          <path d="m1064.74,405.38c-.04.09-.05.2-.06.29,0,.05,0,.09,0,.14.01.1.02.2.06.29s.07.18.13.26.11.16.19.22c.09.07.17.13.28.16.13.04.22.02.35,0,.02,0,.05-.01.07-.02.14-.03.27-.09.41-.15s.24-.14.35-.24c.07-.06.12-.14.17-.21.06-.08.09-.17.13-.27.03-.08.04-.18.05-.26,0-.09-.01-.19-.03-.28-.02-.08-.06-.17-.1-.24-.04-.08-.1-.16-.16-.22-.12-.13-.29-.24-.46-.29-.07-.02-.14-.03-.21-.03-.06,0-.18.02-.21.02-.09.02-.18.05-.26.11-.07.04-.13.1-.18.16-.06.06-.09.13-.11.22-.03.09-.03.17-.01.26,0,.09.03.16.08.24.09.14.22.26.38.29l.17.02c.12,0,.22-.03.32-.09.02-.01.03-.02.05-.03l-.15.06s.03-.01.05-.02l-.17.02s.04,0,.06,0l-.17-.02s.04,0,.06.02l-.15-.06s.05.03.07.04l-.13-.1s.06.05.08.08l-.1-.13s.04.06.06.1l-.06-.15s.03.07.03.11l-.02-.17s0,.05,0,.08l.02-.17s-.01.05-.02.08l.06-.15s-.04.08-.07.11l.1-.13s-.07.08-.11.11l.13-.1c-.06.05-.13.08-.2.12l.15-.06c-.1.04-.21.07-.32.09l.62.16s-.06-.05-.08-.08l.1.13s-.05-.07-.06-.11l.06.15s-.03-.09-.04-.13l.02.17s0-.09,0-.14l-.02.17s.02-.08.03-.12c.03-.09.03-.17.01-.26,0-.09-.03-.16-.08-.24-.04-.07-.1-.13-.16-.18-.06-.06-.13-.09-.22-.11-.16-.04-.35-.03-.49.06l-.13.1c-.08.08-.13.17-.16.28h0Z" style="fill: #97de2a; stroke-width: 0px;"/>
        </g>
        <g>
          <path d="m1072.58,401.37c-.18-.04-.22.32-.03.32.1,0,.16-.14.1-.21s-.21-.03-.22.07" style="fill: #97de2a; stroke-width: 0px;"/>
          <path d="m1072.75,400.75c-.06-.01-.13-.02-.19-.03,0,0,0,0-.01,0,0,0,0,0,0,0l-.17.02s0,0,0,0c0,0-.01,0-.02,0-.03.01-.12.05-.16.07,0,0,0,0,0,0,0,0,0,0-.01,0-.05.04-.12.08-.16.13-.02.02-.08.1-.11.15s-.06.14-.07.17c0,.01-.01.03-.01.05,0,0,0,0,0,.01,0,.06-.02.12-.02.18,0,0,0,.02,0,.03,0,.07.01.15.03.22,0,0,0,.01,0,.02,0,0,0,0,0,0,.02.04.05.12.07.16,0,0,0,0,0,.01.03.06.08.12.13.16.11.1.18.14.32.18,0,0,0,0,.01,0,0,0,0,0,0,0,.04,0,.13.02.17.02.01,0,.02,0,.03,0,.02,0,.14,0,.2-.03.03-.01.13-.04.18-.08.04-.03.1-.07.13-.1,0,0,0,0,0,0,0,0,0,0,.01-.01,0,0,0,0,0,0,.03-.04.07-.09.1-.13,0,0,0,0,0-.02s0-.01,0-.02c.02-.05.05-.11.07-.16,0,0,0,0,0,0,0,0,0-.01,0-.02,0,0,0,0,0,0,0-.05.02-.13.02-.18,0-.01,0-.02,0-.03,0-.05-.01-.13-.02-.17,0,0,0,0,0,0,0-.03-.03-.07-.04-.09-.05-.11-.05-.11-.15-.23,0,0,0,0-.01-.01,0,0,0,0,0,0-.02-.02-.04-.03-.07-.05-.02-.02-.04-.04-.07-.05,0,0,0,0-.01,0-.03-.01-.06-.03-.08-.04-.02,0-.06-.03-.08-.04-.06-.02-.13-.02-.2-.03s-.14.01-.2.02c-.01,0-.02,0-.04.01-.05.02-.11.04-.16.07,0,0,0,0,0,0,0,0,0,0-.01,0-.02.02-.05.04-.07.05s-.05.04-.07.06c0,0,0,0-.01.01-.03.04-.09.1-.12.16-.02.04-.05.12-.07.16,0,0,0,0,0,0-.02.06-.02.13-.03.19,0,.09.02.17.06.25.03.08.07.15.13.21.06.06.13.11.21.13.08.04.16.06.25.06l.17-.02c.11-.03.2-.09.28-.16l.1-.13c.06-.1.09-.21.09-.32h0c0,.05-.02.11-.02.17,0,0,0-.02,0-.02l-.06.15s0-.02.02-.03l-.1.13s.01-.02.02-.02l-.13.1s.02-.01.03-.02l-.15.06s.03,0,.04-.01l-.17.02s.03,0,.04,0l-.17-.02s.02,0,.03,0l-.15-.06s.02,0,.02.01l-.13-.1s.01.01.02.02l-.1-.13s0,.01.01.02l-.06-.15s0,.02,0,.03l-.02-.17s0,.02,0,.04l.02-.17s0,.03-.01.04l.06-.15s-.01.02-.02.03l.1-.13s-.02.02-.02.03l.13-.1s-.02.01-.03.02l.15-.06s-.02,0-.03,0l.17-.02s-.02,0-.03,0l.17.02s-.02,0-.03,0l.15.06s-.02,0-.02-.01l.13.1s-.01-.01-.02-.02l.1.13s-.01-.02-.02-.03l.06.15s-.01-.03-.01-.05l.02.17s0-.04,0-.06l-.02.17s0-.04.02-.06l-.06.15s.01-.03.02-.04l-.1.13s.01-.02.02-.02l-.13.1s.02-.01.02-.01l-.15.06s.02,0,.03,0l-.17.02s.02,0,.03,0l-.17-.02s0,0,0,0c.09.03.17.03.26.01.09,0,.16-.03.24-.08.07-.04.13-.1.18-.16.06-.06.09-.13.11-.22l.02-.17c0-.12-.03-.22-.09-.32l-.1-.13c-.08-.08-.17-.13-.28-.16h0Z" style="fill: #97de2a; stroke-width: 0px;"/>
        </g>
        <g>
          <path d="m1073.55,406.14c-.07.16.25.22.32.06s-.05-.33-.16-.47" style="fill: #97de2a; stroke-width: 0px;"/>
          <path d="m1073,405.82c-.07.17-.08.17-.1.35,0,0,0,.01,0,.02,0,0,0,0,0,0l.02.17s0,0,0,0c.02.06.04.12.07.18,0,0,0,0,0,0,.02.03.08.11.1.13,0,0,0,0,.01.01.05.04.1.09.15.12,0,0,.01,0,.02,0,.05.02.11.05.17.07.01,0,.03,0,.04,0,.06.01.14.03.21.03.22,0,.44-.08.59-.24.02-.02.05-.06.06-.07,0,0,.04-.05.05-.07,0,0,0-.01.01-.02.03-.05.07-.14.08-.21.01-.06.02-.12.02-.18,0,0,0-.01,0-.02,0-.01,0-.02,0-.03,0-.08-.01-.16-.03-.24s-.06-.16-.09-.22c-.01-.03-.03-.05-.04-.08-.06-.09-.13-.18-.2-.27-.06-.06-.13-.11-.21-.13-.08-.04-.16-.06-.25-.06-.09,0-.17.02-.25.06-.08.03-.15.07-.21.13l-.1.13c-.06.1-.09.21-.09.32l.02.17c.03.11.09.2.16.28.01.01.02.03.03.04l-.1-.13c.04.06.08.12.11.18l-.06-.15s.02.07.03.1l-.02-.17s0,.05,0,.08l.02-.17s0,.04-.02.06l.06-.15s-.01.02-.02.03l.1-.13s-.01.02-.02.02l.13-.1s-.02.02-.04.02l.15-.06s-.03.01-.05.01l.17-.02s-.04,0-.06,0l.17.02s-.04,0-.06-.02l.15.06s-.02-.01-.04-.02l.13.1s-.02-.01-.02-.02l.1.13s0-.01-.01-.02l.06.15s0-.01,0-.02l.02.17s0-.02,0-.02l-.02.17s0-.02,0-.03l-.06.15h0c.05-.08.07-.16.08-.24.02-.09.02-.17-.01-.26-.02-.08-.06-.16-.11-.22-.05-.07-.1-.12-.18-.16l-.15-.06c-.11-.03-.23-.03-.34,0l-.15.06c-.1.06-.17.13-.23.23h0Z" style="fill: #97de2a; stroke-width: 0px;"/>
        </g>
        <g>
          <path d="m1079.05,397.91l-.35.34c.19.15.51-.13.38-.34" style="fill: #97de2a; stroke-width: 0px;"/>
          <path d="m1078.59,397.45l-.35.34c-.06.06-.11.13-.13.21-.04.08-.06.16-.06.25l.02.17c.03.11.09.2.16.28.05.04.09.08.14.11,0,0,0,0,.01,0,.06.03.12.06.18.08.01,0,.02,0,.03,0,.07.01.13.02.2.03.08,0,.16-.01.23-.03.01,0,.02,0,.03-.01.05-.02.11-.05.16-.07,0,0,.01,0,.02,0,0,0,.02-.01.03-.02,0,0,.01,0,.02-.01.05-.03.1-.07.14-.11.02-.02.04-.03.05-.05.04-.05.1-.12.13-.18.03-.06.05-.12.08-.18,0-.01,0-.02,0-.03.01-.07.02-.13.03-.2,0,0,0-.01,0-.02,0,0,0,0,0,0,0-.05-.01-.12-.02-.18,0-.01,0-.03,0-.04,0,0,0,0,0,0-.02-.05-.04-.11-.07-.16,0,0,0-.01-.01-.02-.04-.07-.1-.13-.16-.18-.06-.06-.13-.09-.22-.11-.09-.03-.17-.03-.26-.01-.09,0-.16.03-.24.08l-.13.1c-.08.08-.13.17-.16.28l-.02.17c0,.12.03.22.09.32,0,0,0,.02.01.03l-.06-.15s.01.03.01.05l-.02-.17s0,.03,0,.05l.02-.17s0,.04-.02.06l.06-.15s-.02.05-.04.07l.1-.13s-.04.04-.06.06l.13-.1s-.05.03-.07.04l.15-.06s-.05.02-.07.02l.17-.02s-.04,0-.06,0l.17.02s-.03,0-.05-.01l.15.06s-.03-.02-.04-.03l.13.1h0v.9l.35-.34c.06-.06.11-.13.13-.21.04-.08.06-.16.06-.25,0-.09-.02-.17-.06-.25-.03-.08-.07-.15-.13-.21l-.13-.1c-.1-.06-.21-.09-.32-.09l-.17.02c-.11.03-.2.09-.28.16h0Z" style="fill: #97de2a; stroke-width: 0px;"/>
        </g>
        <path d="m1097.81,405.19c.82,0,.82-1.28,0-1.28s-.82,1.28,0,1.28h0Z" style="fill: #fff; stroke-width: 0px;"/>
        <path d="m1097.74,402.92c-.29-.11-.62-.04-.89.09-.23.11-.43.33-.53.56-.23.5-.24,1.09,0,1.59s.88.84,1.41.63c.3-.11.51-.31.67-.58.12-.2.23-.42.31-.64.23-.58.07-1.27-.47-1.62-.28-.18-.72-.07-.88.23-.17.32-.07.68.23.88.01,0,.03.02.04.03l-.13-.1s.07.06.1.1l-.1-.13s.05.08.07.12l-.06-.15c.02.06.04.12.05.18l-.02-.17c0,.06,0,.12,0,.19l.02-.17c-.01.11-.05.21-.09.32l.06-.15c-.08.19-.18.39-.31.56l.1-.13s-.07.09-.12.12l.13-.1s-.07.05-.1.06l.15-.06s-.07.03-.11.03l.17-.02s-.08,0-.12,0l.17.02s-.09-.02-.14-.04l.15.06s-.09-.04-.13-.07l.13.1s-.07-.06-.1-.1l.1.13c-.04-.06-.08-.12-.1-.18l.06.15c-.03-.08-.05-.15-.06-.23l.02.17c-.02-.13-.02-.27,0-.4l-.02.17c.01-.1.04-.19.08-.28l-.06.15c.03-.06.06-.11.09-.16l-.1.13s.07-.07.11-.11l-.13.1s.1-.06.15-.09l-.15.06s.08-.03.12-.03l-.17.02s.1,0,.14,0l-.17-.02s.06.01.09.03c.15.06.36.01.49-.06s.26-.23.29-.38c.04-.16.03-.35-.06-.49s-.22-.23-.38-.29h0Z" style="fill: #fff; stroke-width: 0px;"/>
        <path d="m1097.54,404.16s.07-.01.1-.02l-.17.02c.14-.02.27-.02.41,0l-.17-.02c.12.02.24.05.36.1l-.15-.06c.05.02.11.05.15.08l-.13-.1s.04.04.06.06l-.1-.13s.03.05.05.08l-.06-.15s.02.08.03.12l-.02-.17c.03.22.05.44.02.66l.02-.17c-.01.09-.03.17-.07.25l.06-.15c-.03.06-.06.11-.09.16l.1-.13c-.05.06-.11.12-.17.17l.13-.1c-.12.09-.24.15-.38.21l.15-.06c-.08.03-.17.06-.25.07l.17-.02c-.05,0-.1,0-.15,0l.17.02c-.05,0-.11-.02-.16-.04l.15.06c-.05-.02-.1-.05-.14-.08l.13.1c-.06-.05-.11-.1-.16-.16l.1.13c-.05-.06-.08-.13-.12-.2l.06.15c-.05-.11-.07-.23-.09-.35l.02.17c-.02-.15-.02-.29-.01-.44,0-.33-.3-.66-.64-.64s-.63.28-.64.64c0,.25,0,.5.06.74.06.27.19.5.36.71.35.42.94.58,1.45.38.26-.1.5-.22.71-.41s.35-.41.43-.67c.07-.22.08-.47.07-.71-.02-.28-.03-.58-.19-.82-.39-.55-1.19-.64-1.81-.51-.33.07-.55.47-.45.79.11.35.44.52.79.45h0Z" style="fill: #fff; stroke-width: 0px;"/>
      </g>
      <g>
        <path d="m1562.41,423.45c1.03-.26,2.22.36,2.58,1.37.11.31.35.73.63.56.07-.05.12-.13.19-.18.23-.14.48.14.59.38.15.33.28.68.53.94s.64.44.97.3c.36-.14.51-.55.62-.92.98-3.2,1.62-6.7.47-9.84-1.36,2.97-3.93,5.17-6.43,7.28" style="fill: url(#linear-gradient-18); stroke-width: 0px;"/>
        <path d="m1562.44,423.57c.9-.19,1.88.22,2.33,1.05.23.42.31.98.88.88.26-.04.09-.53.59.03.1.11.16.33.22.45.16.33.34.66.66.85.45.27.96.19,1.26-.26.43-.64.56-1.58.74-2.32.22-.89.4-1.8.51-2.71.22-1.86.12-3.74-.51-5.51-.03-.09-.17-.13-.22-.03-1.4,2.99-3.94,5.17-6.41,7.25-.12.1.05.27.17.17,2.49-2.1,5.04-4.29,6.45-7.3l-.22-.03c.6,1.69.72,3.48.53,5.25-.1.89-.26,1.78-.48,2.65-.11.44-.22.88-.35,1.32-.11.38-.19.87-.45,1.17-.61.71-1.22-.12-1.47-.64-.12-.24-.21-.55-.45-.71-.17-.11-.26-.07-.43-.06-.26.02-.01.43-.51.03-.12-.1-.15-.33-.22-.46-.48-1.01-1.58-1.55-2.67-1.32-.15.03-.09.27.06.23h0Z" style="fill: #97de2a; stroke-width: 0px;"/>
      </g>
      <g>
        <path d="m1557.72,425.34c-.29-1.03-1.43-1.74-2.48-1.55-.32.06-.81.06-.8-.26,0-.09.05-.17.05-.26,0-.27-.36-.35-.63-.32-.36.03-.73.09-1.08.02s-.7-.33-.75-.69c-.06-.38.22-.72.48-1,2.27-2.45,4.98-4.76,8.27-5.34-1.89,2.66-2.5,6-3.07,9.21" style="fill: url(#linear-gradient-19); stroke-width: 0px;"/>
        <path d="m1557.84,425.31c-.28-.87-1.05-1.53-1.96-1.65-.23-.03-.44-.01-.66.01-.12.01-.35.07-.46.01-.2-.1-.1-.29-.13-.43-.08-.32-.32-.43-.64-.43-.38,0-.77.12-1.15.02-.54-.13-.81-.6-.52-1.11.33-.57.95-1.07,1.42-1.53.94-.92,1.95-1.78,3.05-2.5,1.24-.8,2.59-1.39,4.05-1.66l-.14-.18c-1.9,2.72-2.52,6.04-3.08,9.24-.03.15.21.22.23.06.56-3.19,1.17-6.48,3.06-9.19.07-.09-.04-.19-.14-.18-2.69.49-4.98,2.09-6.93,3.95-.5.47-.99.96-1.44,1.47-.31.34-.61.79-.4,1.26.2.44.71.61,1.16.62.34,0,.89-.21,1.11.1.12.18,0,.37.15.54.29.35.98.09,1.34.12.85.07,1.6.68,1.85,1.48.05.15.28.08.23-.06h0Z" style="fill: #97de2a; stroke-width: 0px;"/>
      </g>
      <g>
        <path d="m1565.73,407.71c-2.78.72-5.43,1.76-7.4,3.86-1.32,1.41-2.07,3.29-2.37,5.2-.3,1.91-.17,3.86.09,5.78.21,1.6.5,3.28-.1,4.77-.36.89-1.01,1.63-1.48,2.48-1.24,2.24-2.91,1.37-2.28,3.85.3,1.17,2.12,1.02,2.51.86,4.7-1.94,3.06-3.8,3.16-3.7.85.82.7,6.49,4.62,5.59,1.02-.23,1.28-1.68,1.31-2.73.02-.78-1.3-5.72-1.05-7.05.25-1.32,1.62-2.06,2.73-2.82,1.51-1.03,2.77-2.42,3.66-4.02.53-.96.93-2.01,1.07-3.1.28-2.22-.55-4.43-1.55-6.43-.56-1.13-1.38-2.36-2.63-2.46" style="fill: url(#linear-gradient-20); stroke-width: 0px;"/>
        <path d="m1565.64,407.4c-3.29.88-6.73,2.29-8.59,5.32-2.27,3.7-1.37,7.76-1.1,11.8.08,1.2-.06,2.3-.66,3.36-.5.88-1.09,1.97-1.81,2.67-.66.65-1.62.94-1.74,1.97-.13,1.09.37,2.07,1.46,2.32,1.16.27,2.2-.24,3.18-.82,1.18-.7,2.52-1.94,1.75-3.4l-.44.44c.47.36.59,1.99.77,2.54.29.93.69,1.93,1.46,2.57.71.59,1.76.8,2.65.52,1.19-.37,1.52-1.78,1.54-2.89.02-1.04-.32-2.11-.53-3.12-.26-1.27-.84-2.98-.44-4.26.33-1.02,1.37-1.6,2.21-2.17.77-.52,1.49-1.09,2.14-1.75,1.23-1.27,2.25-2.84,2.76-4.54.66-2.23.17-4.49-.72-6.58-.67-1.58-1.54-3.59-3.42-3.91-.4-.07-.58.55-.17.62,1.98.34,2.92,3.08,3.46,4.73.7,2.11.7,4.21-.26,6.24-.82,1.73-2.12,3.23-3.67,4.34-1.03.74-2.31,1.36-2.85,2.58-.33.75-.22,1.55-.11,2.33.17,1.22.43,2.43.68,3.64.22,1.07.44,2.07.07,3.15-.58,1.68-2.63,1.16-3.43.01-.6-.87-.83-1.95-1.1-2.96-.14-.52-.24-1.28-.7-1.63-.27-.21-.57.18-.44.44.9,1.72-2.54,3.4-3.8,3.33-1.07-.06-1.88-1.24-1.19-2.2.29-.41.86-.63,1.23-.97.58-.53.92-1.22,1.35-1.87s.89-1.3,1.15-2.06c.62-1.81.11-3.77-.08-5.61-.22-2.12-.24-4.3.39-6.35,1.3-4.24,5.18-6.14,9.18-7.21.4-.11.23-.72-.17-.62h0Z" style="fill: #97de2a; stroke-width: 0px;"/>
      </g>
      <g>
        <path d="m1561.89,413.2c-.29.26-.38.71-.25,1.08s.47.65.84.76c.65.19,1.43-.15,1.7-.78s-.02-1.44-.63-1.73-1.45.02-1.7.65" style="stroke-width: 0px;"/>
        <path d="m1561.72,413.03c-.55.51-.47,1.38.06,1.87s1.26.54,1.87.24.95-.91.87-1.56-.5-1.23-1.15-1.37c-.72-.15-1.47.22-1.75.9-.05.12.05.27.17.3.14.04.25-.05.3-.17.16-.39.62-.6,1.03-.58.44.02.78.37.89.79.12.43-.03.89-.4,1.16s-.88.34-1.29.11c-.24-.13-.42-.35-.48-.61s.03-.54.22-.72c.23-.21-.11-.55-.34-.34h0Z" style="stroke-width: 0px;"/>
      </g>
      <g>
        <path d="m1557.13,423.54c.05.07.14.1.22.07.04-.1.07-.22,0-.31s-.25-.06-.24.05" style="fill: #97de2a; stroke-width: 0px;"/>
        <path d="m1556.57,423.87c.04.05.07.1.11.15,0,0,.01.01.02.02.05.04.1.08.15.11,0,0,.02,0,.02.01.06.03.11.05.17.07,0,0,.02,0,.03,0,.06.01.13.02.19.03,0,0,.02,0,.03,0,.07,0,.15-.01.22-.03l.15-.06c.1-.06.17-.13.23-.23.02-.03.05-.11.07-.16,0,0,0-.02.01-.03.03-.09.04-.19.05-.28,0-.02,0-.04,0-.06,0,0,0,0,0-.01,0-.06-.01-.12-.02-.17,0-.01,0-.02,0-.03-.02-.06-.05-.12-.07-.17,0,0,0-.02-.01-.02-.04-.06-.07-.11-.13-.16-.04-.03-.1-.09-.16-.12-.05-.02-.12-.06-.19-.07-.16-.03-.25-.04-.41,0,0,0-.01,0-.02,0-.04.01-.12.05-.16.07,0,0,0,0-.01,0-.06.03-.11.07-.16.12-.1.11-.14.17-.18.31-.02.06-.03.17-.03.19,0,0,0,.01,0,.02,0,.09.02.17.06.25.03.08.07.15.13.21.06.06.13.11.21.13.08.04.16.06.25.06l.17-.02c.11-.03.2-.09.28-.16l.1-.13c.06-.1.09-.21.09-.32,0,0,0-.01,0-.02l-.02.17s0-.01,0-.02l-.06.15s0-.01,0-.02l-.1.13s.01-.01.02-.02l-.13.1s.02-.01.03-.02l-.15.06s.03,0,.04-.01l-.17.02s.03,0,.04,0l-.17-.02s.03,0,.04.01l-.15-.06s.02.01.03.02l-.13-.1s.01.01.02.02l-.1-.13s.02.03.02.04l-.06-.15s.01.04.01.05l-.02-.17s0,.05,0,.08l.02-.17s-.02.09-.04.14l.45-.45s-.02,0-.03,0l.17-.02s-.04,0-.05,0l.17.02s-.03,0-.05-.01l.15.06s-.03-.01-.04-.02l.13.1s-.02-.02-.03-.03l.1.13s0,0,0,0c-.04-.07-.1-.13-.16-.18-.06-.06-.13-.09-.22-.11-.09-.03-.17-.03-.26-.01-.09,0-.16.03-.24.08l-.13.1c-.08.08-.13.17-.16.28l-.02.17c0,.12.03.22.09.32h0Z" style="fill: #97de2a; stroke-width: 0px;"/>
      </g>
      <g>
        <path d="m1557.29,420.4s.06.13.09.08c.02-.03,0-.08-.05-.07s-.05.06-.02.08" style="fill: #97de2a; stroke-width: 0px;"/>
        <path d="m1556.83,419.95c-.09.1-.13.17-.17.3-.02.06-.03.12-.03.19,0,.03.02.15.01.09,0-.05,0,.06.01.09,0,0,0,0,0,0,.01.03.04.12.07.17,0,0,.07.11.11.14s.09.07.14.1c0,0,0,0,.01,0,.11.06.23.1.36.1.13,0,.22-.02.34-.09.05-.03.1-.07.14-.11-.02.02.08-.09.11-.14l.03-.08s.02-.05.03-.08c0,0,0,0,0,0,.03-.12.04-.24,0-.36-.02-.06-.04-.12-.07-.17.02.03-.07-.1-.11-.14h0s-.09-.07-.13-.1c0,0,0,0,0,0-.11-.06-.21-.09-.34-.09s-.23.03-.34.09-.18.14-.25.25c-.03.05-.05.11-.07.16,0,0,0,0,0,.01.02-.1-.02.12-.02.17,0,0,0,0,0,0h0c0,.06.02.12.02.17,0,0,0,0,0,0,.03.11.09.23.18.3.06.06.13.11.21.13.08.04.16.06.25.06.09,0,.17-.02.25-.06.08-.03.15-.07.21-.13l.1-.13c.06-.1.09-.21.09-.32l-.02-.17c-.03-.11-.09-.2-.16-.28,0,0,0,0,0,0l.1.13s0,0,0,0l.06.15s0,0,0-.01l.02.17s0,0,0-.01l-.02.17s0,0,0-.01l-.06.15s0,0,0-.01l-.1.13s0,0,0,0l-.13.1s0,0,0,0l-.15.06s0,0,.01,0l-.17.02s0,0,.01,0l-.17-.02s0,0,0,0l-.15-.06s0,0,.01,0l-.13-.1s0,0,0,0l-.1-.13s0,0,0,.01l-.06-.15s0,.01,0,.02l-.02-.17s0,0,0,.01l.02-.17s0,0,0,.01l.06-.15s0,0,0,0l.1-.13s0,0,0,0l.13-.1s0,0,0,0l.15-.06s0,0,0,0l.17-.02s0,0-.01,0l.17.02s-.01,0-.02,0l.15.06s-.01,0-.02-.01l.13.1s-.01,0-.02-.02l.1.13s0,0,0-.02l.06.15s0,0,0-.01l.02.17s0,0,0-.01l-.02.17s0,0,0,0l-.06.15s0,0,0,0l-.1.13s0,0,0,0c.06-.06.11-.13.13-.21.04-.08.06-.16.06-.25,0-.09-.02-.17-.06-.25-.03-.08-.07-.15-.13-.21l-.13-.1c-.1-.06-.21-.09-.32-.09l-.17.02c-.11.03-.2.09-.28.16h0Z" style="fill: #97de2a; stroke-width: 0px;"/>
      </g>
      <g>
        <path d="m1559,421.07c.03.06.12-.03.08-.09s-.12-.05-.18-.04" style="fill: #97de2a; stroke-width: 0px;"/>
        <path d="m1558.44,421.39s.07.1.11.14c0,0,.12.1.13.1,0,0,0,0,0,0,.05.03.1.05.16.07,0,0,0,0,0,0,0,0,.16.02.17.02,0,0,0,0,0,0,.03,0,.21-.03.09-.01-.05,0,.06,0,.09-.01,0,0,0,0,0,0,.13-.05.2-.08.31-.18,0,0,0,0,0,0,0,0,0,0,0,0l.05-.06s.03-.04.05-.07c0,0,0-.01,0-.02h0c.02-.05.04-.1.06-.15,0,0,0,0,0,0,0,0,0,0,0,0s0,0,0,0c0-.02.02-.15.02-.17,0,0,0,0,0,0,0-.06,0-.12-.02-.18,0-.03-.03-.08-.03-.08,0,0-.02-.06-.04-.08-.08-.12-.14-.18-.26-.26-.05-.03-.13-.06-.17-.07,0,0-.02,0-.02,0-.06-.01-.13-.02-.19-.03,0,0-.02,0-.03,0-.02,0-.04,0-.06,0-.09,0-.17.02-.25.06-.08.03-.15.07-.21.13-.06.06-.11.13-.13.21-.04.08-.06.16-.06.25l.02.17c.03.11.09.2.16.28l.13.1c.1.06.21.09.32.09.03,0,.06,0,.09,0l-.17-.02s.03,0,.04.01l-.15-.06s.02,0,.02.01l-.13-.1s.01.01.02.02l-.1-.13s0,0,0,.01l-.06-.15s0,0,0,.01l-.02-.17s0,.01,0,.02l.02-.17s0,.01,0,.02l.06-.15s0,.01-.01.02l.1-.13s-.01.01-.02.02l.13-.1s0,0-.01,0l.15-.06s0,0-.01,0l.17-.02s0,0,0,0l.17.02s0,0,0,0l.15.06s0,0,0,0l.13.1s0,0,0,0l.1.13s0,0,0,0c-.04-.07-.1-.13-.16-.18-.06-.06-.13-.09-.22-.11-.09-.03-.17-.03-.26-.01-.09,0-.16.03-.24.08l-.13.1c-.08.08-.13.17-.16.28l-.02.17c0,.12.03.22.09.32h0Z" style="fill: #97de2a; stroke-width: 0px;"/>
      </g>
      <g>
        <path d="m1557.52,417.64l.04.18c.09-.03.06-.19-.03-.19" style="fill: #97de2a; stroke-width: 0px;"/>
        <path d="m1556.9,417.81l.04.18c.02.08.06.16.11.22.05.07.1.12.18.16l.15.06c.11.03.23.03.34,0,.03,0,.06-.03.08-.03.02,0,.06-.02.08-.03s.07-.05.08-.06c.09-.07.1-.07.18-.2,0,0,0,0,0-.01.01-.03.03-.06.03-.08,0-.02.03-.05.03-.08,0,0,0,0,0-.01.01-.06.02-.12.02-.18,0,0,0-.02,0-.03,0-.06-.01-.12-.02-.18,0,0,0,0,0-.01-.02-.06-.04-.12-.08-.18-.02-.03-.04-.06-.06-.07-.01-.01-.04-.05-.06-.07-.04-.04-.09-.08-.14-.11,0,0,0,0-.01,0,.05.03-.11-.05-.16-.07,0,0,0,0,0,0-.03,0-.07-.01-.09-.01-.02,0-.06-.01-.09-.01-.09,0-.17.02-.25.06-.08.03-.15.07-.21.13-.06.06-.11.13-.13.21-.04.08-.06.16-.06.25l.02.17c.03.11.09.2.16.28l.13.1c.1.06.21.09.32.09,0,0,0,0,0,0l-.17-.02s.01,0,.02,0l-.15-.06s.01,0,.02,0l-.13-.1s.01,0,.02.02l-.1-.13s.01.02.01.02l-.06-.15s0,.02,0,.03l-.02-.17s0,.02,0,.03l.02-.17s0,.02,0,.03l.06-.15s0,.01-.01.02l.1-.13s0,0-.01.01l.13-.1s-.01,0-.02,0l.15-.06s0,0,0,0l.79.45-.04-.18c-.02-.08-.06-.16-.11-.22-.05-.07-.1-.12-.18-.16-.07-.05-.15-.07-.24-.08-.09-.02-.17-.02-.26.01l-.15.06c-.1.06-.17.13-.23.23l-.06.15c-.03.11-.03.23,0,.34h0Z" style="fill: #97de2a; stroke-width: 0px;"/>
      </g>
      <g>
        <path d="m1565.08,409.71c.03.09.15.15.24.1s.08-.2,0-.24-.19.11-.12.17" style="fill: #97de2a; stroke-width: 0px;"/>
        <path d="m1564.47,409.88s0,0,0,0c.02.05.05.11.07.16,0,0,0,0,0,.01,0,0,0,.02.01.02.04.05.07.1.11.15,0,0,.01.01.02.02.04.03.1.08.15.11,0,0,.02,0,.02.01.06.03.11.05.17.07,0,0,.02,0,.03,0,.05,0,.12.02.17.02,0,0,0,0,0,0,0,0,0,0,.01,0,.06,0,.17-.02.19-.02,0,0,.02,0,.02,0,.06-.02.12-.04.17-.07,0,0,.01,0,.02-.01.03-.02.1-.07.14-.11s.08-.09.11-.14c0,0,0-.01.01-.02,0,0,0,0,0,0,.02-.04.05-.11.07-.16,0,0,0,0,0,0,0,0,0-.01,0-.02,0-.03,0-.07.01-.09,0-.02,0-.06.01-.09,0,0,0,0,0-.01,0,0,0-.01,0-.02,0-.06-.01-.13-.03-.19,0,0,0-.01,0-.02-.02-.04-.05-.11-.07-.16,0,0,0,0,0,0,0,0,0,0,0,0s0,0,0,0c0,0,0,0,0,0-.02-.02-.03-.04-.05-.07-.02-.02-.03-.04-.05-.07,0,0,0,0-.01-.01-.04-.04-.09-.08-.15-.11-.03-.01-.07-.03-.08-.04-.02,0-.06-.03-.09-.04,0,0,0,0-.01,0-.03,0-.09-.01-.09-.01-.02,0-.06,0-.09-.01,0,0,0,0-.01,0,0,0,0,0,0,0h0c-.06,0-.11.02-.17.02,0,0-.01,0-.02,0-.05.02-.12.04-.17.07,0,0,0,0,0,0,0,0,0,0,0,0l-.13.1s0,0,0,0c0,0-.01.01-.02.02,0,0,0,0,0,0-.03.04-.07.09-.1.13,0,0,0,0,0,.01,0,0,0,0,0,.01,0,0,0,0,0,0-.01.03-.02.05-.03.08-.01.03-.02.05-.03.08,0,0,0,.01,0,.02-.01.06-.03.13-.02.19,0,0,0,0,0,0,0,0,0,0,0,0l.02.17s0,0,0,.01c0,.03.03.07.04.09,0,.01.02.06.04.09,0,0,0,0,0,0,.02.02.03.05.05.07.02.02.03.04.05.07,0,0,0,0,0,0,.06.06.13.11.21.13.08.04.16.06.25.06.09,0,.17-.02.25-.06.08-.03.15-.07.21-.13l.1-.13c.06-.1.09-.21.09-.32l-.02-.17c-.03-.11-.09-.2-.16-.28,0,0,0,0-.01-.01l.1.13s0,0,0-.01l.06.15s0-.01,0-.02l.02.17s0-.02,0-.02l-.02.17s0-.02,0-.03l-.06.15s.01-.02.02-.03l-.1.13s.02-.02.02-.02l-.13.1s.02-.01.03-.02l-.15.06s.02,0,.02,0l-.17.02s.02,0,.02,0l-.17-.02s.02,0,.02,0l-.15-.06s.01,0,.02.01l-.13-.1s.01.01.02.02l-.1-.13s.01.02.02.03l-.06-.15s0,.02,0,.03l-.02-.17s0,.03,0,.04l.02-.17s0,.03-.01.04l.06-.15s-.01.02-.02.03l.1-.13s-.01.01-.02.02l.13-.1s-.02.01-.03.02l.15-.06s-.02,0-.04.01l.17-.02s-.03,0-.04,0l.17.02s-.03,0-.04-.01l.15.06s-.03-.02-.05-.03l.13.1s-.02-.02-.03-.03l.1.13s-.02-.02-.02-.04l.06.15s0,0,0,0c-.02-.08-.06-.16-.11-.22-.05-.07-.1-.12-.18-.16-.07-.05-.15-.07-.24-.08-.09-.02-.17-.02-.26.01l-.15.06c-.1.06-.17.13-.23.23l-.06.15c-.03.11-.03.23,0,.34h0Z" style="fill: #97de2a; stroke-width: 0px;"/>
      </g>
      <path d="m1563.47,413.31c.31,0,.31-.48,0-.48s-.31.48,0,.48h0Z" style="fill: #fff; stroke-width: 0px;"/>
      <path d="m1562.97,412.73c-.05.04-.1.08-.13.13-.02.04-.04.09-.05.13-.02.12,0,.23.05.33.05.09.12.16.2.22.07.05.15.09.23.11.12.03.24.02.35-.04.1-.05.18-.14.21-.24.04-.12,0-.25-.04-.36-.03-.06-.06-.13-.1-.18-.06-.09-.14-.17-.24-.22-.07-.03-.13-.05-.2-.05s-.14.02-.21.05c-.05.02-.1.09-.11.14-.02.06,0,.13.02.19s.08.1.14.11h.06s.08,0,.12-.02h0s-.04.01-.06.02c.01,0,.03,0,.04-.01h-.06s.04,0,.06,0h-.06s.04,0,.06,0l-.06-.02s.04.02.07.04l-.05-.04s.05.04.07.07l-.04-.05c.05.07.09.14.13.22l-.02-.06s.02.05.02.07v-.06s0,.04,0,.05v-.06s0,.02,0,.03l.02-.06s-.01.03-.02.04l.04-.05s-.02.02-.03.03l.05-.04s-.03.02-.05.03l.06-.02s-.04.01-.06.02h.06s-.05,0-.07,0h.06s-.06,0-.09-.02l.06.02s-.08-.04-.12-.07l.05.04s-.06-.05-.08-.08l.04.05s-.03-.04-.04-.07l.02.06s-.01-.04-.02-.06v.06s0-.04,0-.07v.06s0-.03,0-.05l-.02.06s.01-.03.02-.04l-.04.05s.02-.02.03-.03l-.05.04h0c.05-.04.09-.08.11-.15.02-.06,0-.13-.02-.19s-.08-.1-.14-.11-.13-.01-.19.02h0Z" style="fill: #fff; stroke-width: 0px;"/>
      <path d="m1563.29,413.06s0-.01,0-.02l-.02.06s.04-.08.07-.12l-.04.05s.06-.07.1-.1l-.05.04s.05-.03.07-.04l-.06.02s.02,0,.04,0h-.06s.02,0,.03,0h-.06s.03,0,.05,0l-.06-.02c.07.03.14.07.2.11l-.05-.04s.05.04.07.07l-.04-.05s.03.04.04.06l-.02-.06s.02.06.02.09v-.06s0,.1-.01.14v-.06s0,.08-.02.12l.02-.06s-.02.03-.03.05l.04-.05s-.02.03-.04.04l.05-.04s-.04.03-.06.04l.06-.02s-.05.02-.07.02h.06s-.06,0-.1,0h.06s-.08,0-.11-.02l.06.02c-.06-.03-.12-.06-.17-.1-.05-.03-.13-.04-.19-.02s-.12.06-.14.11c-.06.12-.02.25.09.33.15.1.32.18.5.16.12-.01.22-.05.31-.13.07-.07.12-.16.14-.26.02-.11.03-.22,0-.34-.02-.1-.07-.19-.14-.27-.06-.06-.13-.11-.21-.15-.03-.02-.06-.03-.09-.05-.09-.04-.17-.06-.26-.04-.11.02-.21.1-.28.18-.08.09-.13.18-.17.29-.02.05,0,.14.02.19s.09.1.14.11c.06.01.13.01.19-.02s.09-.08.11-.14h0Z" style="fill: #fff; stroke-width: 0px;"/>
      <g>
        <path d="m1581.59,442.44c.68-.17,1.45.24,1.69.89.07.2.23.48.41.37.05-.03.08-.08.13-.12.15-.09.32.09.39.25.1.21.19.44.35.62s.42.29.64.2c.23-.09.33-.36.41-.6.64-2.09,1.06-4.38.3-6.43-.89,1.94-2.57,3.38-4.2,4.76" style="fill: url(#linear-gradient-21); stroke-width: 0px;"/>
        <path d="m1581.63,442.56c.57-.12,1.19.14,1.47.66.12.22.26.75.63.59.13-.06.13-.22.34,0,.06.07.1.22.14.3.11.22.23.44.45.57.31.19.68.13.88-.18.28-.42.37-1.04.49-1.52.15-.59.26-1.18.33-1.78.14-1.22.08-2.45-.34-3.61-.03-.09-.17-.13-.22-.03-.91,1.95-2.57,3.37-4.19,4.74-.12.1.05.27.17.17,1.63-1.37,3.3-2.81,4.22-4.78l-.22-.03c.39,1.1.47,2.27.34,3.42-.06.58-.17,1.15-.31,1.72-.07.29-.15.58-.23.86-.07.24-.12.56-.29.75-.38.43-.74-.1-.89-.41-.08-.17-.14-.37-.31-.48-.1-.07-.21-.09-.32-.04-.12.05-.11.17-.29.04-.08-.06-.1-.21-.14-.29-.32-.68-1.06-1.05-1.8-.89-.15.03-.09.27.06.23h0Z" style="fill: #97de2a; stroke-width: 0px;"/>
      </g>
      <g>
        <path d="m1578.53,443.68c-.19-.67-.93-1.14-1.62-1.01-.21.04-.53.04-.52-.17,0-.06.03-.11.04-.17,0-.18-.24-.23-.41-.21-.24.02-.48.06-.71.01s-.46-.22-.49-.45c-.04-.25.14-.47.32-.65,1.49-1.6,3.26-3.12,5.41-3.49-1.23,1.74-1.64,3.92-2.01,6.03" style="fill: url(#linear-gradient-22); stroke-width: 0px;"/>
        <path d="m1578.65,443.65c-.19-.59-.71-1.03-1.32-1.11-.15-.02-.29,0-.45.01-.07,0-.22.04-.28,0-.11-.06-.05-.16-.06-.25-.01-.23-.26-.32-.46-.32-.25,0-.49.08-.74.02-.33-.08-.49-.36-.31-.67.21-.37.62-.7.92-.99.61-.6,1.27-1.16,1.99-1.63.81-.52,1.69-.91,2.64-1.08l-.14-.18c-1.24,1.78-1.65,3.95-2.02,6.05-.03.15.21.22.23.06.37-2.08.76-4.23,1.99-6,.07-.09-.04-.19-.14-.18-1.77.32-3.27,1.38-4.55,2.59-.32.31-.65.63-.94.96-.21.24-.42.55-.27.88.14.3.48.42.79.43.19,0,.57-.13.7.04.08.11,0,.25.1.37.21.24.65.07.91.09.54.04,1.01.43,1.17.94.05.15.28.08.23-.06h0Z" style="fill: #97de2a; stroke-width: 0px;"/>
      </g>
      <g>
        <path d="m1583.77,432.15c-1.82.47-3.55,1.15-4.84,2.52-.87.92-1.36,2.15-1.55,3.4s-.11,2.53.06,3.78c.14,1.04.33,2.14-.06,3.12-.24.58-.66,1.07-.97,1.62-.81,1.46-1.9.9-1.49,2.52.2.77,1.39.67,1.64.56,3.08-1.27,2-2.49,2.07-2.42.55.54.49,3.74,3.02,3.66.69-.02.84-1.1.86-1.79.01-.51-.85-3.74-.68-4.61.16-.87,1.06-1.35,1.78-1.85.99-.68,1.81-1.58,2.39-2.63.35-.63.61-1.31.7-2.03.18-1.45-.36-2.89-1.01-4.2-.37-.74-.9-1.54-1.72-1.61" style="fill: url(#linear-gradient-23); stroke-width: 0px;"/>
        <path d="m1583.68,431.84c-2.16.58-4.4,1.5-5.65,3.47-1.49,2.36-1.01,5.03-.78,7.64.13,1.46-.5,2.99-1.55,4.04-.47.47-1.12.65-1.19,1.4-.19,1.9,1.78,1.83,2.96,1.2.86-.46,2.06-1.41,1.43-2.51l-.44.44c.26.18.44,1.4.56,1.72.24.6.56,1.18,1.1,1.56s1.43.64,2.01.27.72-1.37.69-1.99c-.02-.67-.23-1.35-.37-2-.16-.82-.61-2.1-.18-2.88.33-.61,1.07-.95,1.61-1.34.51-.37.98-.78,1.39-1.25.76-.87,1.39-1.92,1.65-3.06.32-1.42-.04-2.83-.61-4.13-.45-1.04-1.03-2.31-2.27-2.53-.4-.07-.58.54-.17.62,1.46.26,2.19,2.68,2.43,3.93.35,1.8-.38,3.51-1.58,4.83-.84.92-2.14,1.4-2.86,2.4-.47.66-.4,1.34-.29,2.1.13.93.35,1.84.52,2.76.07.35.1.65.06,1.01-.05.43-.09.76-.48.95-.34.17-.68.08-1.01-.09-.79-.42-1.07-1.37-1.31-2.16-.12-.39-.21-1-.57-1.25-.27-.19-.59.17-.44.44.59,1.04-1.82,2.2-2.59,1.98-.89-.25-.69-1.04-.2-1.47.26-.22.53-.38.76-.65.65-.76,1.34-1.83,1.54-2.82.22-1.14-.09-2.33-.19-3.46-.12-1.33-.12-2.69.3-3.97.86-2.68,3.36-3.88,5.9-4.56.4-.11.23-.72-.17-.62h0Z" style="fill: #97de2a; stroke-width: 0px;"/>
      </g>
      <g>
        <path d="m1581.25,435.74c-.19.17-.25.46-.16.71s.31.42.55.49c.43.13.93-.1,1.11-.51s-.01-.94-.41-1.13-.95.01-1.11.42" style="stroke-width: 0px;"/>
        <path d="m1581.14,435.62c-.36.33-.31.9.04,1.22s.82.36,1.22.16.62-.6.57-1.02-.33-.8-.75-.89c-.47-.1-.96.15-1.15.59-.03.08.04.17.11.19.09.03.16-.03.19-.11.11-.26.41-.39.67-.38.29.02.51.24.58.51.08.28-.02.58-.26.76s-.58.22-.84.07c-.15-.09-.28-.23-.31-.4s.02-.35.14-.47c.15-.14-.07-.36-.22-.22h0Z" style="stroke-width: 0px;"/>
      </g>
      <g>
        <path d="m1578.14,442.5s.09.06.14.05c.03-.07.04-.15,0-.2s-.16-.04-.15.03" style="fill: #97de2a; stroke-width: 0px;"/>
        <path d="m1577.59,442.82s.07.1.11.14c0,0,0,0,.01.01.05.04.09.08.14.11,0,0,0,0,.02,0,.05.03.11.05.17.07,0,0,.01,0,.02,0,.06.01.12.02.18.03,0,0,.01,0,.02,0,.07,0,.14,0,.2-.03l.15-.06c.1-.06.17-.13.23-.23.01-.02.05-.11.07-.16,0,0,0-.01,0-.02,0-.01,0-.03.01-.04.02-.07.02-.14.03-.21,0-.01,0-.03,0-.04,0,0,0,0,0,0v-.09s-.02-.06-.02-.09c0,0,0-.01,0-.02-.02-.06-.04-.11-.07-.17,0,0,0-.01,0-.02-.03-.05-.07-.09-.11-.14,0,0,0,0-.01-.01-.04-.04-.09-.08-.14-.11,0,0,0,0-.01,0-.05-.02-.11-.05-.16-.07,0,0,0,0-.01,0-.16-.03-.23-.04-.39,0,0,0,0,0-.01,0-.03.01-.13.05-.15.07,0,0,0,0,0,0-.06.03-.11.07-.15.11-.09.1-.13.16-.17.3-.02.05-.03.19-.03.18,0,0,0,0,0,.01,0,.09.02.17.06.25.03.08.07.15.13.21.06.06.13.11.21.13.08.04.16.06.25.06l.17-.02c.11-.03.2-.09.28-.16l.1-.13c.06-.1.09-.21.09-.32,0,0,0,0,0-.01l-.02.17s0,0,0-.01l-.06.15s0,0,0-.01l-.1.13s0,0,.01-.01l-.13.1s.01,0,.02-.01l-.15.06s.02,0,.03,0l-.17.02s.02,0,.03,0l-.17-.02s.02,0,.03,0l-.15-.06s.01,0,.02.01l-.13-.1s0,0,.01.01l-.1-.13s.01.02.02.03l-.06-.15s0,.02,0,.04l-.02-.17s0,.04,0,.05l.02-.17s-.01.06-.03.09l.45-.45s-.01,0-.02,0l.17-.02s-.02,0-.03,0l.17.02s-.02,0-.03,0l.15.06s-.02,0-.03-.02l.13.1s-.02-.01-.02-.02l.1.13s0,0,0,0c-.04-.07-.1-.13-.16-.18-.06-.06-.13-.09-.22-.11-.09-.03-.17-.03-.26-.01-.09,0-.16.03-.24.08l-.13.1c-.08.08-.13.17-.16.28l-.02.17c0,.12.03.22.09.32h0Z" style="fill: #97de2a; stroke-width: 0px;"/>
      </g>
      <g>
        <path d="m1578.24,440.44s.04.09.06.05c.01-.02,0-.05-.03-.05s-.03.04-.02.06" style="fill: #97de2a; stroke-width: 0px;"/>
        <path d="m1577.79,439.99s0,0,0,0c0,0-.1.12-.1.13-.01.03-.03.06-.03.08-.01.02-.03.05-.03.08,0,0-.02.17-.02.17,0,0,0,0,0,0h0s0,.06.01.09c-.01-.11,0,.06.01.09,0,0,0,0,0,0,0,0,.06.15.07.15,0,0,0,0,0,0,.01.03.04.06.05.07.01.02.04.05.06.07.04.04.09.08.14.11,0,0,0,0,0,0,.02,0,.14.06.15.07,0,0,0,0,0,0,.06.01.12.03.18.02,0,0,.17-.02.17-.02,0,0,0,0,0,0h0s.05-.02.08-.03l.08-.03h0s0,0,0,0c0,0,.13-.1.13-.1.02-.02.04-.05.06-.07.02-.03.04-.04.05-.07,0,.02.05-.11.07-.16,0,0,.02-.16.02-.17,0,0,0,0,0,0h0s0-.06-.01-.09c0,.01,0-.06-.01-.09,0,0,0,0,0,0l-.03-.08s-.02-.05-.03-.08c-.01-.02-.05-.06-.05-.07-.01-.02-.03-.05-.06-.07,0,0-.13-.1-.13-.1,0,0,0,0,0,0h0s-.05-.02-.08-.03c.03.01-.05-.03-.08-.03s-.15-.02-.09-.01h-.09s0-.01,0-.01c-.06,0-.12,0-.18.02,0,0,0,0,0,0l-.15.06s0,0,0,0c-.1.05-.18.15-.24.24,0,0,0,0,0,0-.01.03-.02.05-.03.08-.01.03-.02.05-.03.08,0,0,0,0,0,0,0,.02-.02.16-.02.17,0,0,0,0,0,0,0,0,.02.17.02.17,0,0,0,0,0,0h0s.02.05.03.08c0,.02.02.05.03.08,0,0,.09.12.1.13,0,0,0,0,0,0,.06.06.13.11.21.13.08.04.16.06.25.06.09,0,.17-.02.25-.06.08-.03.15-.07.21-.13l.1-.13c.06-.1.09-.21.09-.32l-.02-.17c-.03-.11-.09-.2-.16-.28,0,0,0,0,0,0l.1.13s0,0,0,0l.06.15s0,0,0,0l.02.17s0,0,0,0l-.02.17s0,0,0-.01l-.06.15s0,0,0,0l-.1.13s0,0,0,0l-.13.1s0,0,0,0l-.15.06s0,0,0,0l-.17.02s0,0,0,0l-.17-.02s0,0,0,0l-.15-.06s0,0,0,0l-.13-.1s0,0,0,0l-.1-.13s0,0,0,0l-.06-.15s0,0,0,0l-.02-.17s0,0,0,0l.02-.17s0,0,0,0l.06-.15s0,0,0,0l.1-.13s0,0,0,0l.13-.1s0,0,0,0l.15-.06s0,0,0,0l.17-.02s0,0,0,0l.17.02s0,0-.01,0l.15.06s0,0-.01,0l.13.1s0,0-.01-.01l.1.13s0,0,0,0l.06.15s0,0,0,0l.02.17s0,0,0,0l-.02.17s0,0,0,0l-.06.15s0,0,0,0l-.1.13s0,0,0,0c.06-.06.11-.13.13-.21.04-.08.06-.16.06-.25,0-.09-.02-.17-.06-.25-.03-.08-.07-.15-.13-.21l-.13-.1c-.1-.06-.21-.09-.32-.09l-.17.02c-.11.03-.2.09-.28.16h0Z" style="fill: #97de2a; stroke-width: 0px;"/>
      </g>
      <g>
        <path d="m1579.36,440.88s.08-.02.06-.06-.08-.03-.12-.03" style="fill: #97de2a; stroke-width: 0px;"/>
        <path d="m1578.81,441.21c.07.1.13.17.24.24.1.06.21.09.33.09s.24-.03.34-.09.19-.15.25-.25c.06-.11.1-.22.09-.35,0-.13-.03-.22-.09-.33-.03-.05-.07-.1-.11-.14-.09-.09-.19-.14-.31-.18,0,0-.01,0-.02,0-.06-.01-.13-.02-.19-.02-.01,0-.03,0-.04,0-.09,0-.17.02-.25.06-.08.03-.15.07-.21.13-.06.06-.11.13-.13.21-.04.08-.06.16-.06.25l.02.17c.03.11.09.2.16.28l.13.1c.1.06.21.09.32.09.02,0,.04,0,.06,0l-.17-.02s.02,0,.03,0l-.15-.06s.01,0,.02,0l-.13-.1s0,0,.01.01l-.1-.13s0,0,0,0l-.06-.15s0,0,0,0l-.02-.17s0,0,0,0l.02-.17s0,0,0,.01l.06-.15s0,0,0,.01l.1-.13s0,0,0,0l.13-.1s0,0,0,0l.15-.06s0,0,0,0l.17-.02s0,0,0,0l.17.02s0,0,0,0l.15.06s0,0,0,0l.13.1s0,0,0,0l.1.13s0,0,0,0c-.04-.07-.1-.13-.16-.18-.06-.06-.13-.09-.22-.11-.09-.03-.17-.03-.26-.01-.09,0-.16.03-.24.08l-.13.1c-.08.08-.13.17-.16.28l-.02.17c0,.12.03.22.09.32h0Z" style="fill: #97de2a; stroke-width: 0px;"/>
      </g>
      <g>
        <path d="m1578.4,438.64l.02.12c.06-.02.04-.12-.02-.12" style="fill: #97de2a; stroke-width: 0px;"/>
        <path d="m1577.78,438.81l.02.12c.02.08.06.16.11.22.05.07.1.12.18.16l.15.06c.11.03.23.03.34,0,.06-.02.11-.04.16-.07,0,0,0,0,0,0l.13-.1s0,0,0,0c0,0,0,0,0,0,0,0,0,0,0,0l.1-.13s0,0,0,0c.03-.05.05-.11.07-.16,0,0,0,0,0,0,0,0,0,0,0,0l.02-.17c0-.06-.02-.18-.02-.19,0-.03-.03-.07-.04-.1-.05-.11-.04-.11-.14-.22-.02-.02-.06-.05-.07-.06s-.05-.04-.07-.06c-.03-.01-.05-.02-.08-.03-.03-.01-.05-.02-.08-.03,0,0,0,0,0,0-.06-.02-.12-.02-.18-.02-.09,0-.17.02-.25.06-.08.03-.15.07-.21.13-.06.06-.11.13-.13.21-.04.08-.06.16-.06.25l.02.17c.03.11.09.2.16.28l.13.1c.1.06.21.09.32.09,0,0,0,0,0,0l-.17-.02s0,0,.01,0l-.15-.06s0,0,.01,0l-.13-.1s0,0,0,.01l-.1-.13s0,0,0,.01l-.06-.15s0,.01,0,.02l-.02-.17s0,.02,0,.02l.02-.17s0,.01,0,.02l.06-.15s0,0,0,.01l.1-.13s0,0,0,0l.13-.1s0,0-.01,0l.15-.06s0,0,0,0l.79.45-.02-.12c-.02-.08-.06-.16-.11-.22-.05-.07-.1-.12-.18-.16-.07-.05-.15-.07-.24-.08-.09-.02-.17-.02-.26.01l-.15.06c-.1.06-.17.13-.23.23l-.06.15c-.03.11-.03.23,0,.34h0Z" style="fill: #97de2a; stroke-width: 0px;"/>
      </g>
      <g>
        <path d="m1583.34,433.46c.02.06.1.1.16.07s.06-.13,0-.16-.13.07-.08.11" style="fill: #97de2a; stroke-width: 0px;"/>
        <path d="m1582.73,433.63s0,0,0,0c.01.03.05.12.06.15,0,0,0,0,0,0,0,0,0,.01,0,.02.02.02.08.11.1.13,0,0,0,0,0,0,0,0,0,0,0,0,0,0,0,0,.01.01.03.02.1.08.13.1,0,0,0,0,0,0,0,0,0,0,0,0,0,0,0,0,.01,0h0c.05.02.1.04.15.07,0,0,0,0,0,0,0,0,0,0,0,0,0,0,.01,0,.02,0,.03,0,.14.02.17.02,0,0,0,0,0,0,0,0,0,0,0,0,0,0,0,0,0,0,0,0,0,0,0,0h0c.06,0,.11-.02.17-.02,0,0,.01,0,.02,0,.06-.02.11-.04.17-.07,0,0,0,0,0,0,0,0,0,0,0,0,.02-.01.12-.09.13-.1,0,0,0,0,.01-.01,0,0,0,0,0,0,.01-.02.09-.11.1-.13,0,0,0,0,0,0,0,0,0,0,0-.01h0c.02-.05.04-.1.06-.15,0,0,0,0,0,0,0,0,0,0,0,0,0,0,0,0,0-.01,0-.03.02-.14.02-.17,0,0,0,0,0,0,0,0,0,0,0,0,0,0,0-.01,0-.02,0-.03-.01-.08-.01-.09,0-.01,0-.06-.01-.09,0,0,0,0,0,0,0,0,0,0,0-.01,0-.02-.06-.13-.06-.15,0,0,0,0,0,0,0,0,0,0,0,0,0,0,0,0,0,0-.02-.02-.06-.08-.05-.07-.01-.02-.03-.05-.05-.07,0,0,0,0,0,0-.01,0-.12-.09-.13-.1,0,0,0,0,0,0,0,0,0,0,0,0-.03-.01-.07-.03-.08-.04,0,0-.05-.03-.08-.03,0,0,0,0,0,0-.03,0-.12-.02-.09-.01.03,0-.06-.01-.09-.01,0,0,0,0,0,0,0,0,0,0,0,0-.01,0-.16.02-.17.02,0,0,0,0-.01,0-.03,0-.09.04-.08.03,0,0-.05.02-.08.03,0,0,0,0,0,0s0,0,0,0c-.02.02-.06.05-.07.05,0,0-.05.03-.07.05,0,0,0,0-.01.01-.02.02-.05.07-.05.07,0,.01-.04.04-.05.07,0,0,0,0,0,0,0,0,0,0,0,0,0,0,0,0,0,0l-.06.15h0s0,.01,0,.02c0,0,0,0,0,0l-.02.17h0s0,0,0,.01c0,.06,0,.12.02.18,0,0,0,0,0,0h0c.02.05.04.1.06.15,0,0,0,0,0,0,.03.05.07.1.11.14.06.06.13.11.21.13.08.04.16.06.25.06.09,0,.17-.02.25-.06.08-.03.15-.07.21-.13l.1-.13c.06-.1.09-.21.09-.32l-.02-.17c-.03-.11-.09-.2-.16-.28,0,0,0,0,0,0l.1.13s0,0,0-.01l.06.15s0,0,0-.01l.02.17s0-.01,0-.02l-.02.17s0-.01,0-.02l-.06.15s0-.01.01-.02l-.1.13s0-.01.02-.02l-.13.1s.01,0,.02,0l-.15.06s.01,0,.02,0l-.17.02s0,0,.01,0l-.17-.02s0,0,.01,0l-.15-.06s.01,0,.01,0l-.13-.1s0,0,.01.01l-.1-.13s0,.01,0,.02l-.06-.15s0,.02,0,.02l-.02-.17s0,.02,0,.03l.02-.17s0,.02,0,.03l.06-.15s0,.01-.01.02l.1-.13s0,.01-.02.02l.13-.1s-.01,0-.02,0l.15-.06s-.02,0-.02,0l.17-.02s-.02,0-.03,0l.17.02s-.02,0-.03,0l.15.06s-.02-.01-.03-.02l.13.1s-.02-.01-.02-.02l.1.13s-.01-.02-.01-.02l.06.15s0,0,0,0c-.02-.08-.06-.16-.11-.22-.05-.07-.1-.12-.18-.16-.07-.05-.15-.07-.24-.08-.09-.02-.17-.02-.26.01l-.15.06c-.1.06-.17.13-.23.23l-.06.15c-.03.11-.03.23,0,.34h0Z" style="fill: #97de2a; stroke-width: 0px;"/>
      </g>
      <path d="m1582.29,435.81c.2,0,.2-.32,0-.32s-.2.32,0,.32h0Z" style="fill: #fff; stroke-width: 0px;"/>
      <path d="m1581.96,435.43s-.06.05-.09.09c-.02.03-.03.06-.03.09-.01.08,0,.15.03.22.03.06.08.1.13.14.04.03.1.06.15.07.08.02.15.01.23-.02.07-.03.12-.09.14-.16.03-.08,0-.16-.03-.23-.02-.04-.04-.08-.07-.12-.04-.06-.09-.11-.16-.14-.04-.02-.08-.03-.13-.03s-.09.01-.14.03c-.03.02-.06.06-.07.09-.01.04,0,.09.02.12s.05.06.09.07h.04s.06,0,.08-.02h0s-.03,0-.04.01c0,0,.02,0,.03,0h-.04s.02,0,.04,0h-.04s.03,0,.04,0l-.04-.02s.03.01.04.02l-.03-.02s.03.03.05.05l-.02-.03s.06.09.08.14l-.02-.04s.01.03.01.05v-.04s0,.02,0,.04v-.04s0,.02,0,.02l.02-.04s0,.02-.02.03l.02-.03s-.01.01-.02.02l.03-.02s-.02.01-.03.02l.04-.02s-.02,0-.04.01h.04s-.03,0-.05,0h.04s-.04,0-.06-.01l.04.02s-.05-.03-.08-.05l.03.02s-.04-.03-.05-.05l.02.03s-.02-.03-.03-.04l.02.04s0-.03-.01-.04v.04s0-.03,0-.04v.04s0-.02,0-.03l-.02.04s0-.02.02-.03l-.02.03s.01-.01.02-.02l-.03.02h0s.06-.06.07-.1c.01-.04,0-.09-.02-.12s-.05-.06-.09-.07-.09,0-.12.02h0Z" style="fill: #fff; stroke-width: 0px;"/>
      <path d="m1582.17,435.65s0,0,0-.01l-.02.04s.03-.06.05-.08l-.02.03s.04-.05.07-.07l-.03.02s.03-.02.05-.03l-.04.02s.01,0,.02,0h-.04s.01,0,.02,0h-.04s.02,0,.03,0l-.04-.02s.09.05.13.08l-.03-.02s.03.03.05.05l-.02-.03s.02.03.02.04l-.02-.04s.01.04.02.06v-.04s0,.06,0,.09v-.04s0,.05-.01.08l.02-.04s-.01.02-.02.03l.02-.03s-.01.02-.02.02l.03-.02s-.03.02-.04.02l.04-.02s-.03,0-.05.01h.04s-.04,0-.06,0h.04s-.05,0-.07-.02l.04.02s-.08-.04-.11-.06c-.03-.02-.08-.03-.12-.02s-.08.04-.09.07c-.04.08-.02.17.06.22.09.07.21.12.33.11.08,0,.15-.03.2-.09.05-.04.08-.11.09-.17.02-.07.02-.15,0-.22-.01-.07-.05-.13-.09-.17-.04-.04-.09-.07-.14-.1-.02-.01-.04-.02-.06-.03-.06-.03-.11-.04-.17-.03-.07.01-.14.07-.19.12-.05.06-.09.12-.11.19-.01.04,0,.09.02.12s.06.06.09.07c.04,0,.09,0,.12-.02s.06-.05.07-.09h0Z" style="fill: #fff; stroke-width: 0px;"/>
      <g>
        <path d="m1434.44,313.95c-.36.67-.12,1.6.52,2.02.19.13.45.37.28.53-.04.04-.11.06-.15.11-.14.13.02.36.17.48.2.16.42.31.57.52s.2.52.05.73c-.16.22-.47.26-.74.28-2.38.14-4.92,0-6.91-1.32,2.29-.45,4.25-1.86,6.13-3.25" style="fill: url(#linear-gradient-24); stroke-width: 0px;"/>
        <path d="m1434.36,313.91c-.35.72-.15,1.58.47,2.08.08.06.16.11.23.18.13.18.12.3-.02.37-.02.04-.05.04-.08.1-.05.12,0,.24.07.34.13.21.38.32.55.49.23.23.33.44.18.74-.13.25-.28.28-.55.31-2.33.25-4.97,0-6.97-1.3l-.02.16c2.32-.47,4.27-1.88,6.15-3.26.09-.07,0-.21-.09-.15-1.86,1.37-3.8,2.77-6.11,3.24-.08.02-.08.12-.02.16,1.06.69,2.27,1.08,3.51,1.25.64.09,1.28.13,1.92.13.58,0,1.18.02,1.75-.07.41-.06.74-.31.68-.76-.03-.22-.16-.41-.32-.57-.12-.12-.3-.2-.4-.33-.13-.09-.16-.22-.11-.39.03-.02.06-.04.09-.07.2-.38-.18-.55-.44-.77-.5-.44-.63-1.2-.35-1.79.05-.1-.1-.19-.15-.09h0Z" style="fill: #97de2a; stroke-width: 0px;"/>
      </g>
      <g>
        <path d="m1436.54,311.01c-.66-.37-.97-1.28-.66-1.98.09-.21.18-.55-.05-.6-.06-.01-.13,0-.19,0-.19-.04-.18-.31-.12-.49.08-.24.19-.49.19-.75s-.11-.54-.35-.64c-.25-.1-.54.03-.78.17-2.08,1.17-4.14,2.66-5.09,4.85,2.17-.87,4.58-.73,6.91-.59" style="fill: url(#linear-gradient-25); stroke-width: 0px;"/>
        <path d="m1436.58,310.94c-.44-.27-.72-.74-.74-1.26,0-.24.05-.44.13-.66.05-.14.11-.29.08-.44-.02-.09-.06-.15-.14-.2-.06-.03-.13,0-.18-.03-.21-.1-.16-.28-.11-.44.12-.4.3-.83.03-1.21-.21-.3-.57-.29-.88-.16-.43.18-.84.46-1.24.71-.8.5-1.58,1.07-2.27,1.72-.77.74-1.42,1.59-1.85,2.57-.03.06.02.16.1.13,2.2-.86,4.58-.73,6.89-.59.11,0,.11-.17,0-.17-2.32-.14-4.72-.27-6.93.59l.1.13c.96-2.17,2.95-3.63,4.96-4.77.16-.09.33-.21.51-.23.4-.04.58.23.58.57,0,.31-.18.57-.22.87-.02.12-.01.26.07.36.05.06.08.05.14.09.04,0,.08,0,.12,0,.13.1.17.21.12.34-.03.18-.14.35-.16.54-.03.23-.01.46.05.68.12.43.39.78.76,1.01.09.06.18-.09.09-.15h0Z" style="fill: #97de2a; stroke-width: 0px;"/>
      </g>
      <g>
        <path d="m1422.95,313.62c.97-1.81,2.13-3.47,3.91-4.49,1.2-.68,2.63-.89,4-.78s2.71.53,4,1.03c1.07.41,2.19.9,3.33.73.68-.1,1.3-.43,1.97-.61,1.76-.49,1.44-1.79,3.05-.94.76.4.35,1.64.18,1.89-2.13,2.94-3.15,1.49-3.1,1.58.43.73,2.99.89,3.11,4.14.03.75-1.38.61-2.12.45-.54-.12-3.75-1.86-4.72-1.9-.96-.05-1.7.78-2.42,1.42-.97.88-2.14,1.52-3.4,1.87-.76.21-1.55.31-2.33.22-1.59-.18-2.98-1.12-4.2-2.15-.69-.58-1.4-1.35-1.27-2.24" style="fill: url(#linear-gradient-26); stroke-width: 0px;"/>
        <path d="m1423.23,313.79c1.35-2.49,3.23-4.84,6.26-5.11,1.57-.14,3.12.24,4.59.75,1.17.41,2.34,1.03,3.61,1.03,1.03,0,2.27-.44,3.18-.89.73-.36,1.69-1.72,2.33-.43.51,1.02-1.64,3.62-2.68,2.65-.22-.2-.65,0-.53.31.16.43.71.64,1.08.85.9.51,1.59,1.16,1.88,2.19.06.22.27.82.15,1.03-.22.36-.81.27-1.15.23-.44-.04-.78-.16-1.19-.34-.89-.39-1.76-.84-2.66-1.21-.8-.33-1.56-.63-2.41-.28-1.25.51-2.09,1.77-3.27,2.42-1.58.87-3.48,1.26-5.21.6-1.38-.53-4.01-2.06-3.92-3.75.02-.41-.62-.41-.64,0-.06,1.18.77,1.99,1.63,2.68,1.05.86,2.23,1.64,3.58,1.93,2.63.57,5.09-.8,6.98-2.49.57-.52,1.17-1.03,1.99-.88.46.08.92.31,1.35.49.88.38,1.72.83,2.61,1.19.63.26,1.39.39,2.06.26.88-.16.97-.72.84-1.54-.15-.96-.58-1.83-1.33-2.46-.29-.25-.61-.44-.95-.63-.15-.09-.72-.3-.78-.46l-.53.31c1.85,1.74,5.62-2.93,3.04-4.09-.59-.27-1.08-.25-1.59.15-1.05.8-2.47,1.52-3.83,1.52-1.55,0-3.05-.94-4.52-1.36-1.33-.38-2.73-.58-4.11-.38-3.05.43-4.99,2.82-6.38,5.38-.2.36.36.69.55.32h0Z" style="fill: #97de2a; stroke-width: 0px;"/>
      </g>
      <g>
        <path d="m1427.41,311.88c.23-.16.56-.15.79,0s.37.43.38.71c.02.49-.34.97-.82,1.05s-1-.25-1.1-.73.25-1,.74-1.07" style="stroke-width: 0px;"/>
        <path d="m1427.49,312.03c.32-.21.7-.03.85.3s.05.67-.18.91-.55.32-.86.2c-.28-.11-.5-.38-.49-.69,0-.35.28-.67.63-.73.09-.02.14-.13.12-.21-.03-.1-.12-.14-.21-.12-.44.07-.8.47-.86.91s.18.89.59,1.1c.43.22.93.16,1.28-.16s.5-.82.34-1.26c-.09-.26-.28-.49-.53-.6s-.59-.11-.84.06c-.18.12-.01.42.17.3h0Z" style="stroke-width: 0px;"/>
      </g>
      <g>
        <path d="m1435.38,310.3s.05.11.01.16c-.08.01-.17,0-.22-.05s0-.18.07-.16" style="fill: #97de2a; stroke-width: 0px;"/>
        <path d="m1434.93,310.75s0,0,0,0l-.1-.13s.01.02.02.03l-.06-.15s0,.02,0,.04l-.02-.17s0,.02,0,.04l.02-.17s0,.02,0,.04l.06-.15s0,.01,0,.02l.38-.29s0,0,0,0l.17-.02s-.07,0-.1,0l.17.02s-.04,0-.05-.01l.15.06s-.02-.01-.03-.02l.13.1s-.02-.01-.02-.02l.1.13s0-.01,0-.02l.06.15s0-.02,0-.02l.02.17s0-.02,0-.03l-.02.17s0-.02,0-.03l-.06.15s0-.02.01-.02l-.1.13s0-.01.02-.02l-.13.1s0,0,.01,0l-.15.06s0,0,.01,0l-.17.02s0,0,.01,0l-.17-.02s0,0,.01,0c.09.03.17.03.26.01.09,0,.16-.03.24-.08.07-.04.13-.1.18-.16.06-.06.09-.13.11-.22l.02-.17c0-.12-.03-.22-.09-.32l-.1-.13c-.08-.08-.17-.13-.28-.16-.06-.02-.13-.03-.19-.03-.14,0-.22.03-.34.09-.11.06-.2.16-.26.26-.07.13-.09.23-.1.37,0,.06.02.2.02.19,0,0,0,0,0,.01.02.06.04.11.07.17.05.11.17.21.27.27,0,0,0,0,.01,0,.05.03.11.05.17.07.01,0,.03,0,.04.01.07.01.14.02.2.03.01,0,.03,0,.04,0s.03,0,.04,0c.06,0,.12,0,.18-.02.11-.03.21-.08.29-.17.03-.03.08-.09.11-.15,0,0,.06-.12.07-.17,0,0,0-.01,0-.02,0-.02.02-.13.02-.19s-.02-.17-.02-.19c0,0,0-.01,0-.02-.02-.06-.05-.12-.07-.17,0,0,0-.01-.01-.02-.03-.05-.07-.1-.11-.14-.06-.06-.13-.11-.21-.13-.08-.04-.16-.06-.25-.06-.09,0-.17.02-.25.06-.08.03-.15.07-.21.13l-.1.13c-.06.1-.09.21-.09.32l.02.17c.03.11.09.2.16.28h0Z" style="fill: #97de2a; stroke-width: 0px;"/>
      </g>
      <g>
        <path d="m1433.18,309.89s.08.06.04.08c-.02,0-.05-.02-.04-.04s.05-.03.06,0" style="fill: #97de2a; stroke-width: 0px;"/>
        <path d="m1433.5,310.44s0,0,0,0l-.15.06s0,0,0,0l-.17.02s0,0,0,0l-.17-.02s0,0,0,0l-.15-.06s0,0,0,0l-.13-.1s0,0,0,.01l-.1-.13s0,0,0,.01l-.06-.15s0,0,0,.01l-.02-.17s0,0,0,.01l.02-.17s0,0,0,0l.06-.15s0,0,0,0l.1-.13s0,0,0,0l.13-.1s0,0,0,0l.15-.06s0,0,0,0l.17-.02s0,0,0,0l.17.02s0,0,0,0l.15.06s0,0,0,0l.13.1s0,0,0,0l.1.13s0,0,0,0l.06.15s0,0,0,0l.02.17s0,0,0,0l-.02.17s0,0,0,0l-.06.15s0,0,0,0l-.1.13s0,0,0,0l-.13.1s0,0,0,0l-.15.06s0,0,.01,0l-.17.02s0,0,.01,0l-.17-.02s0,0,0,0l-.15-.06s0,0,0,0l-.13-.1s0,0,0,0l-.1-.13s0,0,0,0c.04.07.1.13.16.18.06.06.13.09.22.11.09.03.17.03.26.01.09,0,.16-.03.24-.08l.13-.1c.08-.08.13-.17.16-.28l.02-.17c0-.12-.03-.22-.09-.32,0,0,0,0,0,0,0,0-.09-.12-.1-.13,0,0,0,0,0,0,0,0-.12-.09-.13-.1-.05-.03-.11-.06-.17-.07-.02,0-.15-.02-.17-.02,0,0,0,0,0,0s0,0,0,0c-.02,0-.15.02-.17.02,0,0,0,0,0,0-.02,0-.14.06-.15.07,0,0,0,0,0,0,0,0,0,0,0,0-.01,0-.12.09-.13.1,0,0,0,0,0,0,0,0-.1.12-.1.13-.06.09-.09.23-.09.34,0,0,0,0,0,0,0,.01.02.16.02.17.01.05.1.23.07.16,0,0,0,0,0,0l.05.06s.03.05.05.07c0,0,0,0,0,0,.04.04.09.07.14.1.02.01.14.06.08.03-.07-.03.06.03.08.03.12.03.24.03.36,0,.06-.01.11-.04.16-.07.03-.01.05-.03.07-.05,0,0,.05-.03.07-.05h0s.03-.04.05-.07c.02-.02.04-.04.05-.07.03-.05.06-.11.07-.16,0,0,.02-.16.02-.17,0,0,0,0,0,0,0,0,0,0,0,0,0-.02-.02-.16-.02-.17,0,0,0,0,0,0,0,0,0,0,0,0,0-.02-.06-.13-.07-.15,0,0,0,0,0,0,0,0,0,0,0,0,0,0,0,0,0,0l-.1-.13s0,0,0,0c0,0,0,0,0,0-.11-.1-.11-.09-.22-.14s-.06-.03-.17-.05c-.01,0-.06-.01-.09-.01,0,0-.17.02-.17.02,0,0,0,0,0,0-.06.01-.11.04-.16.07-.07.04-.13.1-.18.16-.06.06-.09.13-.11.22-.03.09-.03.17-.01.26,0,.09.03.16.08.24l.1.13c.08.08.17.13.28.16l.17.02c.12,0,.22-.03.32-.09h0Z" style="fill: #97de2a; stroke-width: 0px;"/>
      </g>
      <g>
        <path d="m1433.35,311.19s-.04.08-.08.04-.02-.09,0-.13" style="fill: #97de2a; stroke-width: 0px;"/>
        <path d="m1432.9,311.64s0,0,0,0l-.1-.13s0,0,0,0l-.06-.15s0,0,0,0l-.02-.17s0,0,0,0l.02-.17s0,0,0,0l.06-.15s0,0,0,0l.1-.13s0,0,0,0l.13-.1s0,0-.02,0l.15-.06s-.01,0-.02,0l.17-.02s0,0-.01,0l.17.02s0,0-.01,0l.15.06s0,0,0,0l.13.1s0,0,0,0l.1.13s0-.01-.01-.02l.06.15s0-.01,0-.02l.02.17s0-.02,0-.04l-.02.17s0-.04.02-.06c.03-.09.03-.17.01-.26,0-.09-.03-.16-.08-.24-.04-.07-.1-.13-.16-.18-.06-.06-.13-.09-.22-.11l-.17-.02c-.12,0-.22.03-.32.09l-.13.1c-.08.08-.13.17-.16.28,0,.01,0,.03-.01.04,0,0,0,.01,0,.02,0,.03,0,.07-.01.09s0,.06-.01.09c0,0,0,0,0,.01,0,0,0,.01,0,.02,0,0,0,0,0,0,0,.03.02.14.02.17,0,0,0,0,0,0,0,.03.03.07.03.08,0,.01.02.06.04.08,0,0,0,0,0,0,0,0,0,0,0,0l.1.13h0s0,0,0,0c0,0,.13.1.13.1,0,0,0,0,0,0,0,0,0,0,0,0,0,0,.15.06.15.06,0,0,0,0,0,0,0,0,0,0,0,0,0,0,.17.02.17.02,0,0,0,0,0,0,0,0,0,0,0,0,0,0,0,0,0,0,.01,0,.16-.02.17-.02,0,0,0,0,.01,0,0,0,0,0,0,0,.01,0,.14-.06.15-.06,0,0,0,0,0,0s0,0,0,0c0,0,0,0,0,0,0,0,.12-.1.13-.1,0,0,0,0,0,0,0,0,.1-.13.1-.13,0,0,0,0,0,0,0,0,0,0,0,0,0,0,.06-.15.07-.15,0,0,0,0,0,0,0,0,0,0,0,0,0,0,.02-.16.02-.17,0,0,0,0,0,0,0,0-.02-.17-.02-.17,0-.03-.02-.04-.03-.08,0-.02-.02-.06-.03-.08h0s-.03-.04-.05-.07c0,0-.03-.05-.05-.07-.06-.06-.13-.11-.21-.13-.08-.04-.16-.06-.25-.06-.09,0-.17.02-.25.06-.08.03-.15.07-.21.13l-.1.13c-.06.1-.09.21-.09.32l.02.17c.03.11.09.2.16.28h0Z" style="fill: #97de2a; stroke-width: 0px;"/>
      </g>
      <g>
        <path d="m1431.22,309.59l.12.06c-.03.06-.14.01-.13-.05" style="fill: #97de2a; stroke-width: 0px;"/>
        <path d="m1430.9,310.14l.12.06-.23-.88s0,0,0,0l.1-.13s0,0,0,0l.13-.1s0,0-.01,0l.15-.06s0,0-.01,0l.17-.02s-.01,0-.02,0l.17.02s-.02,0-.02,0l.15.06s-.01,0-.02-.01l.13.1s0,0-.01-.01l.1.13s0,0,0-.01l.06.15s0,0,0-.01l.02.17s0,0,0-.01l-.02.17s0,0,0,0c.03-.09.03-.17.01-.26,0-.09-.03-.16-.08-.24-.04-.07-.1-.13-.16-.18-.06-.06-.13-.09-.22-.11l-.17-.02c-.12,0-.22.03-.32.09l-.13.1c-.08.08-.13.17-.16.28-.03.14-.04.22,0,.36.01.06.04.12.07.17.03.05.07.11.12.15.14.11.14.11.3.18,0,0,0,0,.01,0,.06.02.12.02.18.02,0,0,0,0,.01,0,.06,0,.12-.01.18-.02s.12-.04.17-.07c.11-.07.17-.14.25-.25.05-.07.07-.15.08-.24.02-.09.02-.17-.01-.26l-.06-.15c-.06-.1-.13-.17-.23-.23l-.12-.06c-.07-.05-.15-.07-.24-.08-.09-.02-.17-.02-.26.01-.08.02-.16.06-.22.11-.07.05-.12.1-.16.18l-.06.15c-.03.11-.03.23,0,.34l.06.15c.06.1.13.17.23.23h0Z" style="fill: #97de2a; stroke-width: 0px;"/>
      </g>
      <path d="m1427.05,313.12c.22,0,.22-.34,0-.34s-.22.34,0,.34h0Z" style="fill: #fff; stroke-width: 0px;"/>
      <path d="m1427.14,312.79h0s-.02.01-.03.02c0,0,.02-.01.02-.02l-.04.02s.02,0,.03,0h-.05s.03,0,.04,0h-.05s.03,0,.04,0l-.04-.02s.03.01.04.02l-.03-.03s.03.03.04.04l-.03-.03s.03.05.04.07l-.02-.04s.02.06.03.09v-.05s0,.04,0,.07v-.05s0,.03,0,.05l.02-.04s-.01.02-.02.03l.03-.03s-.02.02-.03.03l.03-.03s-.02.01-.03.02l.04-.02s-.02,0-.03,0h.05s-.02,0-.03,0h.05s-.02,0-.03,0l.04.02s-.04-.02-.05-.03l.03.03s-.09-.08-.13-.13l.03.03s-.03-.04-.03-.06l.02.04s-.01-.03-.01-.05v.05s0-.03,0-.05v.05s0-.02,0-.04l-.02.04s0-.02.01-.03l-.03.03h0s.05-.08.05-.13c0-.04-.02-.09-.05-.12s-.08-.05-.12-.05c-.04,0-.09.02-.12.05-.03.04-.05.07-.07.12-.01.03-.02.07-.01.11,0,.07.03.14.07.2.04.05.08.09.12.13.05.05.11.1.19.11.08.02.17,0,.24-.04s.12-.11.14-.2c.03-.15-.02-.31-.12-.42-.05-.05-.12-.1-.19-.11-.05,0-.1-.01-.15,0s-.09.04-.13.07c-.03.03-.05.08-.05.12s.02.09.05.12.08.05.12.05.09-.02.12-.05h0Z" style="fill: #fff; stroke-width: 0px;"/>
      <path d="m1427.03,312.49c-.13.02-.27.1-.34.2-.05.08-.05.17-.02.26.02.06.03.12.06.17.03.06.08.12.15.15.07.04.14.05.21.06.06,0,.13,0,.19-.02.08-.03.14-.08.18-.15.08-.14.06-.3,0-.45-.02-.04-.04-.08-.08-.1-.04-.02-.09-.03-.13-.02s-.08.04-.1.08-.03.09-.02.13c.02.05.03.09.04.14v-.05s0,.05,0,.08v-.05s0,.04-.01.06l.02-.04s-.02.03-.03.04l.03-.03s-.02.03-.04.04l.03-.03s-.02.01-.03.02l.04-.02s-.03.01-.05.01h.05s-.06,0-.1,0h.05s-.06,0-.1-.02l.04.02s-.03-.02-.05-.03l.03.03s-.03-.02-.04-.04l.03.03s-.03-.04-.04-.07l.02.04s-.04-.1-.04-.15v.05s0-.02,0-.03v.05s0-.02,0-.02l-.02.04s0-.01.01-.02l-.03.03s.03-.03.05-.05l-.03.03s.06-.04.09-.05l-.04.02s.07-.02.11-.03c.04,0,.08-.05.1-.08.02-.04.03-.09.02-.13s-.04-.08-.08-.1l-.04-.02s-.06,0-.09,0h0Z" style="fill: #fff; stroke-width: 0px;"/>
      <path d="m1625.81,376.64s-32.09,2.34-51.95,17.7l51.95-17.7Z" style="fill: #350a0d; stroke-width: 0px;"/>
      <path d="m1594.75,330.11c0,1.76-.33,3.46-.94,5.01-2,5.2-7.05,8.88-12.95,8.88-1.55,0-3.05-.26-4.44-.73-5.5-1.86-9.44-7.05-9.44-13.16,0-7.67,6.21-13.88,13.88-13.88s13.88,6.21,13.88,13.88Z" style="fill: #5b5b59; stroke-width: 0px;"/>
      <circle cx="1579.91" cy="328.2" r="5.27" style="fill: #fff; stroke-width: 0px;"/>
      <path d="m1593.81,335.12c-2,5.2-7.05,8.88-12.95,8.88-1.55,0-3.05-.26-4.44-.73-.59-4.41,1.61-10.07,1.61-10.07l6.81-3.08c4.33.4,7.5,3.33,8.97,5.01Z" style="fill: #fff; stroke-width: 0px;"/>
      <path d="m1408.93,299.6c-.15.54-.4,1.04-.73,1.47-1.07,1.43-2.95,2.13-4.78,1.61-.48-.14-.92-.35-1.31-.61-1.54-1.05-2.3-3-1.77-4.89.67-2.37,3.13-3.75,5.5-3.08,2.37.67,3.75,3.13,3.08,5.5Z" style="fill: #5b5b59; stroke-width: 0px;"/>
      <rect x="1394.96" y="305.87" width="21.33" height="1.71" rx=".85" ry=".85" transform="translate(-14.32 75.16) rotate(-3.05)" style="fill: #5b5b59; stroke-width: 0px;"/>
      <rect x="1394.96" y="310.14" width="21.33" height="1.71" rx=".85" ry=".85" transform="translate(-14.55 75.17) rotate(-3.05)" style="fill: #5b5b59; stroke-width: 0px;"/>
      <rect x="1394.96" y="314.41" width="21.33" height="1.71" rx=".85" ry=".85" transform="translate(-14.77 75.18) rotate(-3.05)" style="fill: #5b5b59; stroke-width: 0px;"/>
      <rect x="1401.84" y="319.04" width="7.55" height="3.25" rx=".85" ry=".85" transform="translate(-15.06 75.18) rotate(-3.05)" style="fill: #5b5b59; stroke-width: 0px;"/>
    </g>
  </g>
  <g id="Layer_6" data-name="Layer 6">
    <g>
      <g>
        <path d="m229.19,267.65c-11.88,0-20.94-3.3-27.16-9.92-6.22-6.61-9.33-16-9.33-28.16,0-6.05.95-11.44,2.85-16.19,1.9-4.75,4.5-8.75,7.81-12.02,3.3-3.27,7.24-5.75,11.81-7.44,4.57-1.69,9.53-2.53,14.87-2.53,3.09,0,5.91.23,8.44.69,2.53.46,4.75.99,6.64,1.58,1.9.6,3.48,1.21,4.75,1.85s2.18,1.13,2.74,1.48l-4.75,13.29c-2.25-1.2-4.87-2.21-7.86-3.06-2.99-.84-6.38-1.27-10.18-1.27-2.53,0-5.01.42-7.44,1.27-2.43.84-4.57,2.2-6.43,4.06s-3.36,4.27-4.48,7.23c-1.13,2.95-1.69,6.54-1.69,10.76,0,3.38.37,6.52,1.11,9.44.74,2.92,1.93,5.43,3.59,7.54,1.65,2.11,3.81,3.78,6.49,5.01,2.67,1.23,5.91,1.85,9.7,1.85,2.39,0,4.54-.14,6.43-.42,1.9-.28,3.59-.62,5.06-1,1.48-.39,2.78-.83,3.9-1.32,1.12-.49,2.14-.95,3.06-1.37l4.54,13.19c-2.32,1.41-5.59,2.67-9.81,3.8-4.22,1.12-9.11,1.69-14.66,1.69Z" style="fill: #a3ea2a; stroke-width: 0px;"/>
        <path d="m312.52,210.69c-3.17,10.69-6.49,20.71-9.94,30.06-3.46,9.35-7.23,18.42-11.32,27.21-1.48,3.17-2.96,5.85-4.44,8.07-1.48,2.21-3.1,4.04-4.86,5.49-1.76,1.44-3.75,2.5-5.97,3.16-2.22.67-4.81,1-7.76,1-2.47,0-4.74-.23-6.82-.69-2.08-.46-3.78-.97-5.12-1.53l2.74-12.55c1.62.56,3.06.95,4.33,1.16,1.27.21,2.6.32,4.01.32,2.81,0,4.98-.76,6.49-2.27,1.51-1.51,2.8-3.6,3.85-6.28-3.59-7.03-7.18-14.93-10.77-23.68s-6.97-18.58-10.13-29.48h16.67c.71,2.74,1.54,5.71,2.49,8.91.95,3.2,1.96,6.43,3.02,9.7,1.06,3.27,2.14,6.45,3.23,9.55,1.09,3.09,2.14,5.91,3.13,8.44.92-2.53,1.87-5.34,2.86-8.44.99-3.09,1.96-6.28,2.91-9.55.95-3.27,1.87-6.5,2.75-9.7.88-3.2,1.68-6.17,2.38-8.91h16.25Z" style="fill: #a3ea2a; stroke-width: 0px;"/>
        <path d="m372.43,238.43c0,4.43-.65,8.44-1.95,12.02-1.3,3.59-3.18,6.65-5.64,9.18-2.46,2.53-5.49,4.48-9.07,5.85-3.59,1.37-7.67,2.06-12.24,2.06-1.9,0-3.89-.09-5.96-.26-2.08-.18-4.11-.41-6.12-.69-2-.28-3.92-.61-5.75-1-1.83-.39-3.45-.79-4.85-1.21v-77.53l15.72-2.53v27.64c1.76-.77,3.59-1.37,5.48-1.79s3.94-.63,6.12-.63c3.94,0,7.42.69,10.44,2.06,3.02,1.37,5.55,3.32,7.59,5.85,2.04,2.53,3.59,5.57,4.64,9.12,1.05,3.55,1.58,7.51,1.58,11.87Zm-16.03-.42c0-10.13-3.73-15.19-11.18-15.19-1.62,0-3.22.21-4.8.63s-2.87.95-3.85,1.58v28.59c.77.14,1.76.26,2.95.37,1.19.11,2.5.16,3.9.16,4.29,0,7.52-1.48,9.7-4.43,2.18-2.95,3.27-6.86,3.27-11.71Z" style="fill: #a3ea2a; stroke-width: 0px;"/>
        <path d="m381.93,238.85c0-4.92.75-9.23,2.27-12.92,1.51-3.69,3.5-6.77,5.96-9.23s5.29-4.33,8.49-5.59c3.2-1.27,6.49-1.9,9.86-1.9,7.88,0,14.1,2.41,18.67,7.23,4.57,4.82,6.86,11.9,6.86,21.25,0,.92-.04,1.92-.11,3.01-.07,1.09-.14,2.06-.21,2.9h-35.65c.35,3.23,1.86,5.8,4.54,7.7,2.67,1.9,6.26,2.85,10.76,2.85,2.88,0,5.71-.26,8.49-.79,2.78-.53,5.04-1.18,6.8-1.95l2.11,12.76c-.84.42-1.97.84-3.38,1.27-1.41.42-2.97.79-4.69,1.11-1.72.32-3.57.58-5.54.79s-3.94.32-5.91.32c-4.99,0-9.33-.74-13.03-2.21-3.69-1.48-6.75-3.5-9.18-6.07-2.43-2.57-4.22-5.61-5.38-9.12-1.16-3.52-1.74-7.31-1.74-11.39Zm36.92-6.01c-.07-1.33-.3-2.64-.69-3.9-.39-1.27-.99-2.39-1.79-3.38-.81-.98-1.83-1.79-3.06-2.43-1.23-.63-2.76-.95-4.59-.95s-3.27.3-4.54.9c-1.27.6-2.32,1.39-3.16,2.37-.84.99-1.5,2.13-1.95,3.43-.46,1.3-.79,2.62-1,3.96h20.78Z" style="fill: #a3ea2a; stroke-width: 0px;"/>
        <path d="m479.6,224.61c-1.41-.35-3.06-.72-4.96-1.11-1.9-.39-3.94-.58-6.12-.58-.99,0-2.16.09-3.53.26-1.37.18-2.41.37-3.11.58v42.4h-15.72v-52.53c2.81-.98,6.13-1.92,9.97-2.79,3.83-.88,8.1-1.32,12.82-1.32.84,0,1.86.05,3.06.16,1.19.11,2.39.25,3.59.42,1.2.18,2.39.39,3.59.63,1.2.25,2.22.54,3.06.9l-2.64,12.97Z" style="fill: #a3ea2a; stroke-width: 0px;"/>
        <path d="m536.98,253.62c2.32,0,4.24-.19,5.75-.58,1.51-.39,2.72-.91,3.64-1.58.91-.67,1.55-1.46,1.9-2.37.35-.91.53-1.93.53-3.06,0-2.39-1.12-4.38-3.38-5.96-2.25-1.58-6.12-3.29-11.6-5.12-2.39-.84-4.78-1.81-7.17-2.9-2.39-1.09-4.54-2.46-6.43-4.11-1.9-1.65-3.45-3.66-4.64-6.01-1.2-2.36-1.79-5.22-1.79-8.6s.63-6.42,1.9-9.12c1.27-2.71,3.06-5.01,5.38-6.91,2.32-1.9,5.13-3.36,8.44-4.38,3.3-1.02,7.03-1.53,11.18-1.53,4.92,0,9.18.53,12.76,1.58s6.54,2.21,8.86,3.48l-4.75,12.97c-2.04-1.05-4.31-1.99-6.8-2.8-2.5-.81-5.5-1.21-9.02-1.21-3.94,0-6.77.55-8.49,1.63-1.72,1.09-2.58,2.76-2.58,5.01,0,1.34.32,2.46.95,3.38.63.92,1.53,1.74,2.69,2.48s2.5,1.41,4.01,2c1.51.6,3.18,1.21,5.01,1.85,3.8,1.41,7.1,2.79,9.92,4.17,2.81,1.37,5.15,2.97,7.01,4.8,1.86,1.83,3.25,3.97,4.17,6.43.91,2.46,1.37,5.45,1.37,8.97,0,6.82-2.39,12.11-7.17,15.88-4.78,3.76-11.99,5.64-21.62,5.64-3.24,0-6.15-.19-8.75-.58-2.6-.39-4.9-.86-6.91-1.42-2-.56-3.73-1.16-5.17-1.79-1.44-.63-2.66-1.23-3.64-1.79l4.64-13.08c2.18,1.2,4.87,2.27,8.07,3.22,3.2.95,7.12,1.42,11.76,1.42Z" style="fill: #a3ea2a; stroke-width: 0px;"/>
        <path d="m574.74,238.85c0-4.92.75-9.23,2.27-12.92,1.51-3.69,3.5-6.77,5.96-9.23s5.29-4.33,8.49-5.59c3.2-1.27,6.49-1.9,9.86-1.9,7.88,0,14.1,2.41,18.67,7.23,4.57,4.82,6.86,11.9,6.86,21.25,0,.92-.04,1.92-.11,3.01-.07,1.09-.14,2.06-.21,2.9h-35.65c.35,3.23,1.86,5.8,4.54,7.7,2.67,1.9,6.26,2.85,10.76,2.85,2.88,0,5.71-.26,8.49-.79,2.78-.53,5.04-1.18,6.8-1.95l2.11,12.76c-.84.42-1.97.84-3.38,1.27-1.41.42-2.97.79-4.69,1.11-1.72.32-3.57.58-5.54.79s-3.94.32-5.91.32c-4.99,0-9.33-.74-13.03-2.21-3.69-1.48-6.75-3.5-9.18-6.07-2.43-2.57-4.22-5.61-5.38-9.12-1.16-3.52-1.74-7.31-1.74-11.39Zm36.92-6.01c-.07-1.33-.3-2.64-.69-3.9-.39-1.27-.99-2.39-1.79-3.38-.81-.98-1.83-1.79-3.06-2.43-1.23-.63-2.76-.95-4.59-.95s-3.27.3-4.54.9c-1.27.6-2.32,1.39-3.16,2.37-.84.99-1.5,2.13-1.95,3.43-.46,1.3-.79,2.62-1,3.96h20.78Z" style="fill: #a3ea2a; stroke-width: 0px;"/>
        <path d="m636.34,238.43c0-4.01.65-7.79,1.95-11.34,1.3-3.55,3.18-6.65,5.64-9.28,2.46-2.64,5.45-4.73,8.97-6.28,3.52-1.55,7.52-2.32,12.03-2.32,2.95,0,5.66.26,8.12.79,2.46.53,4.85,1.28,7.17,2.27l-3.27,12.55c-1.48-.56-3.09-1.05-4.85-1.48s-3.73-.63-5.91-.63c-4.64,0-8.11,1.44-10.39,4.33-2.29,2.88-3.43,6.68-3.43,11.39,0,4.99,1.07,8.86,3.22,11.6,2.14,2.74,5.89,4.11,11.23,4.11,1.9,0,3.94-.17,6.12-.53,2.18-.35,4.18-.91,6.01-1.69l2.21,12.87c-1.83.77-4.11,1.44-6.86,2-2.74.56-5.77.84-9.07.84-5.06,0-9.42-.76-13.08-2.27-3.66-1.51-6.66-3.57-9.02-6.17-2.36-2.6-4.08-5.68-5.17-9.23-1.09-3.55-1.63-7.4-1.63-11.55Z" style="fill: #a3ea2a; stroke-width: 0px;"/>
        <path d="m739.08,264.27c-2.67.77-6.12,1.5-10.34,2.16-4.22.67-8.65,1-13.29,1s-8.63-.63-11.76-1.9c-3.13-1.27-5.61-3.04-7.44-5.33-1.83-2.28-3.13-5.01-3.9-8.17-.77-3.16-1.16-6.64-1.16-10.44v-30.91h15.72v29.01c0,5.06.67,8.72,2,10.97,1.33,2.25,3.83,3.38,7.49,3.38,1.12,0,2.32-.05,3.59-.16s2.39-.23,3.38-.37v-42.83h15.72v53.58Z" style="fill: #a3ea2a; stroke-width: 0px;"/>
        <path d="m787.28,224.61c-1.41-.35-3.06-.72-4.96-1.11-1.9-.39-3.94-.58-6.12-.58-.99,0-2.16.09-3.53.26-1.37.18-2.41.37-3.11.58v42.4h-15.72v-52.53c2.81-.98,6.13-1.92,9.97-2.79,3.83-.88,8.1-1.32,12.82-1.32.84,0,1.86.05,3.06.16,1.19.11,2.39.25,3.59.42,1.2.18,2.39.39,3.59.63,1.2.25,2.22.54,3.06.9l-2.64,12.97Z" style="fill: #a3ea2a; stroke-width: 0px;"/>
        <path d="m815.55,194.65c0,2.88-.93,5.15-2.8,6.8-1.86,1.65-4.06,2.48-6.59,2.48s-4.73-.83-6.59-2.48c-1.86-1.65-2.79-3.92-2.79-6.8s.93-5.15,2.79-6.8c1.86-1.65,4.06-2.48,6.59-2.48s4.73.83,6.59,2.48c1.86,1.65,2.8,3.92,2.8,6.8Zm-1.48,71.52h-15.72v-55.48h15.72v55.48Z" style="fill: #a3ea2a; stroke-width: 0px;"/>
        <path d="m828.31,196.87l15.72-2.53v16.35h18.88v13.08h-18.88v19.51c0,3.31.58,5.94,1.74,7.91,1.16,1.97,3.5,2.95,7.01,2.95,1.69,0,3.43-.16,5.22-.47s3.43-.75,4.91-1.32l2.21,12.24c-1.9.77-4.01,1.44-6.33,2-2.32.56-5.17.84-8.54.84-4.29,0-7.84-.58-10.65-1.74-2.81-1.16-5.06-2.78-6.75-4.85-1.69-2.07-2.87-4.59-3.53-7.54-.67-2.95-1-6.22-1-9.81v-46.62Z" style="fill: #a3ea2a; stroke-width: 0px;"/>
        <path d="m926.09,210.69c-3.17,10.69-6.49,20.71-9.94,30.06-3.46,9.35-7.23,18.42-11.32,27.21-1.48,3.17-2.96,5.85-4.44,8.07-1.48,2.21-3.1,4.04-4.86,5.49-1.76,1.44-3.75,2.5-5.97,3.16-2.22.67-4.81,1-7.76,1-2.47,0-4.74-.23-6.82-.69-2.08-.46-3.78-.97-5.12-1.53l2.74-12.55c1.62.56,3.06.95,4.33,1.16,1.27.21,2.6.32,4.01.32,2.81,0,4.98-.76,6.49-2.27,1.51-1.51,2.8-3.6,3.85-6.28-3.59-7.03-7.18-14.93-10.77-23.68s-6.97-18.58-10.13-29.48h16.67c.71,2.74,1.54,5.71,2.49,8.91.95,3.2,1.96,6.43,3.02,9.7,1.06,3.27,2.14,6.45,3.23,9.55,1.09,3.09,2.14,5.91,3.13,8.44.92-2.53,1.87-5.34,2.86-8.44.99-3.09,1.96-6.28,2.91-9.55.95-3.27,1.87-6.5,2.75-9.7.88-3.2,1.68-6.17,2.38-8.91h16.25Z" style="fill: #a3ea2a; stroke-width: 0px;"/>
      </g>
      <g>
        <path d="m229.39,360.52c-.68-2.12-1.41-4.3-2.19-6.54s-1.56-4.47-2.34-6.68h-23.86c-.77,2.23-1.55,4.46-2.32,6.7-.78,2.24-1.5,4.42-2.17,6.52h-14.28c2.3-6.58,4.48-12.67,6.54-18.25,2.06-5.58,4.08-10.84,6.06-15.78s3.92-9.62,5.84-14.06c1.92-4.44,3.91-8.77,5.97-13h13.04c2.01,4.23,3.99,8.57,5.93,13,1.95,4.44,3.91,9.12,5.89,14.06,1.98,4.94,4,10.2,6.07,15.78s4.25,11.67,6.55,18.25h-14.73Zm-16.52-47.26c-.31.89-.76,2.1-1.35,3.62-.59,1.53-1.26,3.29-2.02,5.29-.75,2-1.6,4.21-2.53,6.61-.93,2.41-1.88,4.93-2.84,7.57h17.47c-.93-2.65-1.84-5.18-2.72-7.59-.88-2.41-1.71-4.62-2.5-6.62-.79-2-1.48-3.76-2.08-5.29-.59-1.53-1.08-2.72-1.44-3.59Z" style="fill: #fff; stroke-width: 0px;"/>
        <path d="m277.05,333.89c-1.18,4.47-2.42,8.9-3.75,13.31-1.32,4.41-2.72,8.85-4.19,13.31h-10.23c-1.06-2.47-2.21-5.41-3.45-8.82-1.24-3.41-2.52-7.13-3.85-11.15-1.33-4.03-2.68-8.29-4.07-12.78-1.39-4.5-2.73-9.04-4.02-13.62h13.84c.47,2.12.99,4.42,1.55,6.92.56,2.5,1.15,5.07,1.77,7.71.62,2.64,1.27,5.3,1.95,7.98.68,2.68,1.37,5.25,2.08,7.71.76-2.59,1.51-5.23,2.25-7.94.73-2.7,1.44-5.36,2.12-7.98.67-2.62,1.32-5.14,1.94-7.58.62-2.44,1.16-4.72,1.63-6.83h9.52c.47,2.12,1,4.39,1.59,6.83.59,2.44,1.2,4.97,1.85,7.58.65,2.62,1.32,5.28,2.03,7.98.71,2.7,1.44,5.35,2.2,7.94.71-2.47,1.42-5.04,2.13-7.71.71-2.67,1.38-5.33,2-7.98.62-2.65,1.21-5.22,1.77-7.71.56-2.5,1.08-4.8,1.55-6.92h13.67c-1.3,4.58-2.64,9.12-4.02,13.62-1.39,4.5-2.74,8.76-4.07,12.78-1.33,4.03-2.62,7.75-3.89,11.15-1.27,3.41-2.43,6.35-3.49,8.82h-10.23c-1.47-4.47-2.91-8.9-4.32-13.31-1.41-4.41-2.7-8.84-3.88-13.31Z" style="fill: #fff; stroke-width: 0px;"/>
        <path d="m333.69,312.91c3.88,0,7.11.44,9.7,1.32,2.59.88,4.66,2.15,6.22,3.79,1.56,1.65,2.66,3.65,3.31,6,.65,2.35.97,4.97.97,7.85v27.33c-1.88.41-4.5.9-7.85,1.45-3.35.56-7.41.84-12.17.84-3,0-5.72-.26-8.16-.79-2.44-.53-4.54-1.4-6.3-2.6-1.76-1.2-3.12-2.78-4.06-4.72-.94-1.94-1.41-4.32-1.41-7.14s.54-5,1.63-6.88c1.09-1.88,2.54-3.38,4.36-4.5,1.82-1.12,3.91-1.92,6.26-2.42,2.35-.5,4.79-.75,7.32-.75,1.7,0,3.22.07,4.54.22s2.39.34,3.22.57v-1.23c0-2.23-.68-4.03-2.03-5.38-1.35-1.35-3.7-2.03-7.05-2.03-2.23,0-4.44.16-6.61.48-2.17.32-4.06.78-5.64,1.37l-1.67-10.58c.76-.23,1.72-.49,2.87-.75,1.15-.26,2.39-.5,3.75-.71,1.35-.21,2.78-.38,4.28-.53,1.5-.15,3.01-.22,4.54-.22Zm1.06,38.44c1.29,0,2.53-.03,3.7-.09,1.18-.06,2.12-.15,2.82-.26v-9.96c-.53-.12-1.32-.23-2.38-.35-1.06-.12-2.03-.18-2.91-.18-1.23,0-2.4.07-3.48.22-1.09.15-2.04.43-2.87.84-.82.41-1.47.97-1.94,1.68-.47.71-.71,1.59-.71,2.64,0,2.06.69,3.48,2.07,4.28,1.38.79,3.28,1.19,5.69,1.19Z" style="fill: #fff; stroke-width: 0px;"/>
        <path d="m393.73,325.78c-1.18-.29-2.56-.6-4.14-.93-1.59-.32-3.29-.49-5.11-.49-.82,0-1.81.08-2.95.22-1.15.15-2.01.31-2.6.49v35.44h-13.14v-43.91c2.35-.82,5.13-1.6,8.33-2.34,3.2-.73,6.77-1.1,10.71-1.1.71,0,1.56.04,2.56.13,1,.09,2,.21,3,.35,1,.15,2,.32,3,.53,1,.21,1.85.46,2.56.75l-2.2,10.84Z" style="fill: #fff; stroke-width: 0px;"/>
        <path d="m399.91,337.68c0-4.11.63-7.71,1.9-10.8,1.26-3.08,2.92-5.66,4.98-7.71,2.06-2.06,4.42-3.62,7.1-4.67,2.67-1.06,5.42-1.59,8.24-1.59,6.58,0,11.78,2.01,15.61,6.04,3.82,4.03,5.73,9.95,5.73,17.77,0,.76-.03,1.6-.09,2.51-.06.91-.12,1.72-.18,2.42h-29.8c.29,2.7,1.56,4.85,3.79,6.44,2.23,1.59,5.23,2.38,8.99,2.38,2.41,0,4.77-.22,7.1-.66,2.32-.44,4.22-.98,5.69-1.63l1.76,10.67c-.71.35-1.65.71-2.82,1.06-1.18.35-2.48.66-3.92.93-1.44.26-2.98.49-4.63.66-1.65.18-3.29.26-4.94.26-4.17,0-7.8-.62-10.89-1.85s-5.64-2.92-7.67-5.07c-2.03-2.15-3.53-4.69-4.5-7.63-.97-2.94-1.45-6.11-1.45-9.52Zm30.86-5.03c-.06-1.12-.25-2.2-.57-3.26-.32-1.06-.82-2-1.5-2.82-.68-.82-1.53-1.5-2.56-2.03-1.03-.53-2.31-.79-3.84-.79s-2.73.25-3.79.75c-1.06.5-1.94,1.16-2.64,1.98-.71.82-1.25,1.78-1.63,2.87-.38,1.09-.66,2.19-.84,3.31h17.37Z" style="fill: #fff; stroke-width: 0px;"/>
        <path d="m453.6,315.73c2.23-.65,5.11-1.25,8.64-1.81,3.53-.56,7.23-.84,11.11-.84s7.21.52,9.83,1.54c2.62,1.03,4.69,2.48,6.22,4.36,1.53,1.88,2.62,4.12,3.26,6.7.65,2.59.97,5.47.97,8.64v26.19h-13.14v-24.6c0-4.23-.56-7.23-1.68-8.99-1.12-1.76-3.2-2.65-6.26-2.65-.94,0-1.94.04-3,.13-1.06.09-2,.19-2.82.31v35.79h-13.14v-44.79Z" style="fill: #fff; stroke-width: 0px;"/>
        <path d="m503.32,337.68c0-4.11.63-7.71,1.9-10.8,1.26-3.08,2.92-5.66,4.98-7.71,2.06-2.06,4.42-3.62,7.1-4.67,2.67-1.06,5.42-1.59,8.24-1.59,6.58,0,11.78,2.01,15.61,6.04,3.82,4.03,5.73,9.95,5.73,17.77,0,.76-.03,1.6-.09,2.51-.06.91-.12,1.72-.18,2.42h-29.8c.29,2.7,1.56,4.85,3.79,6.44,2.23,1.59,5.23,2.38,8.99,2.38,2.41,0,4.77-.22,7.1-.66,2.32-.44,4.22-.98,5.69-1.63l1.76,10.67c-.71.35-1.65.71-2.82,1.06-1.18.35-2.48.66-3.92.93-1.44.26-2.98.49-4.63.66-1.65.18-3.29.26-4.94.26-4.17,0-7.8-.62-10.89-1.85s-5.64-2.92-7.67-5.07c-2.03-2.15-3.53-4.69-4.5-7.63-.97-2.94-1.45-6.11-1.45-9.52Zm30.86-5.03c-.06-1.12-.25-2.2-.57-3.26-.32-1.06-.82-2-1.5-2.82-.68-.82-1.53-1.5-2.56-2.03-1.03-.53-2.31-.79-3.84-.79s-2.73.25-3.79.75c-1.06.5-1.94,1.16-2.64,1.98-.71.82-1.25,1.78-1.63,2.87-.38,1.09-.66,2.19-.84,3.31h17.37Z" style="fill: #fff; stroke-width: 0px;"/>
        <path d="m570.33,351.08c2.41,0,4.11-.23,5.11-.71,1-.47,1.5-1.38,1.5-2.73,0-1.06-.65-1.98-1.94-2.78-1.29-.79-3.26-1.69-5.91-2.69-2.06-.76-3.92-1.56-5.6-2.38-1.67-.82-3.1-1.81-4.28-2.95-1.18-1.15-2.09-2.51-2.73-4.1-.65-1.59-.97-3.5-.97-5.73,0-4.35,1.62-7.79,4.85-10.32,3.23-2.53,7.67-3.79,13.31-3.79,2.82,0,5.52.25,8.11.75,2.59.5,4.64,1.04,6.17,1.63l-2.29,10.23c-1.53-.53-3.19-1-4.98-1.41s-3.81-.62-6.04-.62c-4.12,0-6.17,1.15-6.17,3.44,0,.53.09,1,.26,1.41.18.41.53.81,1.06,1.19.53.38,1.25.8,2.16,1.24.91.44,2.07.93,3.48,1.46,2.88,1.07,5.26,2.12,7.14,3.16,1.88,1.04,3.36,2.16,4.45,3.36,1.09,1.2,1.85,2.54,2.29,4s.66,3.17.66,5.1c0,4.58-1.72,8.04-5.16,10.38-3.44,2.34-8.3,3.52-14.59,3.52-4.12,0-7.54-.35-10.27-1.06-2.73-.71-4.63-1.29-5.69-1.76l2.2-10.67c2.23.88,4.53,1.57,6.88,2.07,2.35.5,4.67.75,6.96.75Z" style="fill: #fff; stroke-width: 0px;"/>
        <path d="m613.09,351.08c2.41,0,4.11-.23,5.11-.71,1-.47,1.5-1.38,1.5-2.73,0-1.06-.65-1.98-1.94-2.78-1.29-.79-3.26-1.69-5.91-2.69-2.06-.76-3.92-1.56-5.6-2.38-1.67-.82-3.1-1.81-4.28-2.95-1.18-1.15-2.09-2.51-2.73-4.1-.65-1.59-.97-3.5-.97-5.73,0-4.35,1.62-7.79,4.85-10.32,3.23-2.53,7.67-3.79,13.31-3.79,2.82,0,5.52.25,8.11.75,2.59.5,4.64,1.04,6.17,1.63l-2.29,10.23c-1.53-.53-3.19-1-4.98-1.41s-3.81-.62-6.04-.62c-4.12,0-6.17,1.15-6.17,3.44,0,.53.09,1,.26,1.41.18.41.53.81,1.06,1.19.53.38,1.25.8,2.16,1.24.91.44,2.07.93,3.48,1.46,2.88,1.07,5.26,2.12,7.14,3.16,1.88,1.04,3.36,2.16,4.45,3.36,1.09,1.2,1.85,2.54,2.29,4s.66,3.17.66,5.1c0,4.58-1.72,8.04-5.16,10.38-3.44,2.34-8.3,3.52-14.59,3.52-4.12,0-7.54-.35-10.27-1.06-2.73-.71-4.63-1.29-5.69-1.76l2.2-10.67c2.23.88,4.53,1.57,6.88,2.07,2.35.5,4.67.75,6.96.75Z" style="fill: #fff; stroke-width: 0px;"/>
        <path d="m680.8,299.42c1.06,1.94,2.28,4.33,3.67,7.19,1.38,2.85,2.83,5.94,4.33,9.26,1.5,3.32,2.99,6.72,4.46,10.18,1.47,3.47,2.86,6.73,4.16,9.79,1.3-3.06,2.68-6.32,4.15-9.79,1.47-3.47,2.96-6.86,4.46-10.18,1.5-3.32,2.95-6.41,4.33-9.26,1.38-2.85,2.61-5.25,3.67-7.19h12.52c.59,4.06,1.13,8.6,1.63,13.62.5,5.03.94,10.26,1.32,15.69.38,5.44.73,10.89,1.06,16.36.32,5.47.6,10.61.84,15.43h-13.4c-.18-5.94-.41-12.4-.71-19.4-.29-6.99-.74-14.05-1.32-21.16-1.06,2.47-2.24,5.2-3.54,8.2-1.3,3-2.58,6-3.85,8.99-1.27,3-2.49,5.86-3.67,8.6-1.18,2.73-2.18,5.07-3.01,7.01h-9.61c-.83-1.94-1.83-4.28-3.01-7.01-1.18-2.73-2.4-5.6-3.67-8.6-1.27-3-2.55-6-3.85-8.99-1.3-3-2.48-5.73-3.54-8.2-.59,7.11-1.03,14.17-1.32,21.16-.29,7-.53,13.46-.71,19.4h-13.4c.23-4.82.51-9.96.84-15.43.32-5.47.67-10.92,1.06-16.36.38-5.44.82-10.67,1.32-15.69.5-5.03,1.04-9.57,1.63-13.62h13.14Z" style="fill: #fff; stroke-width: 0px;"/>
        <path d="m786.15,337.24c0,3.64-.53,6.98-1.59,10.01-1.06,3.03-2.59,5.61-4.58,7.76-2,2.15-4.39,3.81-7.19,4.98-2.79,1.18-5.92,1.76-9.39,1.76s-6.51-.59-9.3-1.76c-2.79-1.17-5.19-2.83-7.19-4.98-2-2.14-3.56-4.73-4.67-7.76-1.12-3.03-1.67-6.36-1.67-10.01s.57-6.97,1.72-9.96c1.15-3,2.73-5.55,4.76-7.67,2.03-2.12,4.44-3.76,7.23-4.94,2.79-1.17,5.83-1.76,9.12-1.76s6.42.59,9.21,1.76c2.79,1.18,5.19,2.82,7.19,4.94,2,2.12,3.56,4.67,4.67,7.67,1.12,3,1.67,6.32,1.67,9.96Zm-13.4,0c0-4.06-.81-7.24-2.42-9.57-1.62-2.32-3.92-3.48-6.92-3.48s-5.32,1.16-6.97,3.48c-1.65,2.32-2.47,5.51-2.47,9.57s.82,7.27,2.47,9.65c1.65,2.38,3.97,3.57,6.97,3.57s5.3-1.19,6.92-3.57c1.62-2.38,2.42-5.6,2.42-9.65Z" style="fill: #fff; stroke-width: 0px;"/>
        <path d="m796.29,315.73c2.23-.65,5.11-1.25,8.64-1.81,3.53-.56,7.23-.84,11.11-.84s7.21.52,9.83,1.54c2.62,1.03,4.69,2.48,6.22,4.36,1.53,1.88,2.62,4.12,3.26,6.7.65,2.59.97,5.47.97,8.64v26.19h-13.14v-24.6c0-4.23-.56-7.23-1.68-8.99-1.12-1.76-3.2-2.65-6.26-2.65-.94,0-1.94.04-3,.13-1.06.09-2,.19-2.82.31v35.79h-13.14v-44.79Z" style="fill: #fff; stroke-width: 0px;"/>
        <path d="m847.78,302.59l13.14-2.12v13.67h15.78v10.93h-15.78v16.31c0,2.76.49,4.97,1.46,6.61.97,1.65,2.92,2.47,5.86,2.47,1.41,0,2.87-.13,4.36-.4,1.5-.26,2.87-.63,4.1-1.1l1.85,10.23c-1.59.65-3.35,1.21-5.29,1.67s-4.32.71-7.14.71c-3.59,0-6.55-.48-8.91-1.45-2.35-.97-4.23-2.32-5.64-4.06-1.41-1.73-2.4-3.83-2.95-6.3-.56-2.47-.84-5.2-.84-8.2v-38.97Z" style="fill: #fff; stroke-width: 0px;"/>
        <path d="m887.37,360.52v-66.3l13.14-2.12v22.22c.88-.29,2.01-.57,3.39-.84,1.38-.26,2.72-.4,4.01-.4,3.76,0,6.89.52,9.39,1.54,2.5,1.03,4.5,2.48,6,4.36,1.5,1.88,2.56,4.12,3.17,6.7.62,2.59.93,5.47.93,8.64v26.19h-13.14v-24.6c0-4.23-.54-7.23-1.63-8.99-1.09-1.76-3.1-2.65-6.04-2.65-1.18,0-2.28.1-3.31.31-1.03.21-1.96.43-2.78.66v35.27h-13.14Z" style="fill: #fff; stroke-width: 0px;"/>
      </g>
    </g>
  </g>
</svg>